solid OBJECT
  facet normal -0.69894565694748489 0.5959787100517282 0.39532814951547141
    outer loop
      vertex -0.018554630597166472 0.0046656463965565106 0.0009191782832235814
      vertex -0.016373029367630361 0.0031243394877958873 0.0070998836310397165
      vertex -0.015006887510543876 0.0059965953519038441 0.0051851592989309589
    endloop
  endfacet
  facet normal -0.84264139180122455 0.37127512813116587 0.3900131588222141
    outer loop
      vertex -0.018554630597166472 0.0046656463965565106 0.0009191782832235814
      vertex -0.019162696771467917 -0.00060512497465477037 0.0046229625174227492
      vertex -0.016373029367630361 0.0031243394877958873 0.0070998836310397165
    endloop
  endfacet
  facet normal -0.95676674569253262 0.23285238822167167 0.17429044619939554
    outer loop
      vertex -0.018554630597166472 0.0046656463965565106 0.0009191782832235814
      vertex -0.020162194365677143 -0.00023836859392893303 -0.0013537630140208487
      vertex -0.019162696771467917 -0.00060512497465477037 0.0046229625174227492
    endloop
  endfacet
  facet normal -0.94446141811790296 0.32657499991286176 -0.036625115953865917
    outer loop
      vertex -0.018554630597166472 0.0046656463965565106 0.0009191782832235814
      vertex -0.01887927179371135 0.0030664813022802506 -0.0049684824118927037
      vertex -0.020162194365677143 -0.00023836859392893303 -0.0013537630140208487
    endloop
  endfacet
  facet normal -0.87138598639072828 0.48347935487978555 -0.083271700636435797
    outer loop
      vertex -0.018554630597166472 0.0046656463965565106 0.0009191782832235814
      vertex -0.016491586507185033 0.0072337946995118963 -0.0057584927660962191
      vertex -0.01887927179371135 0.0030664813022802506 -0.0049684824118927037
    endloop
  endfacet
  facet normal -0.68887216738683033 0.72197721013578453 0.06483860766796494
    outer loop
      vertex -0.018554630597166472 0.0046656463965565106 0.0009191782832235814
      vertex -0.014621697185207496 0.0085514047758812467 -0.00056358998926448346
      vertex -0.016491586507185033 0.0072337946995118963 -0.0057584927660962191
    endloop
  endfacet
  facet normal -0.61733696253774673 0.73342388191468988 0.28457772949030258
    outer loop
      vertex -0.018554630597166472 0.0046656463965565106 0.0009191782832235814
      vertex -0.015006887510543876 0.0059965953519038441 0.0051851592989309589
      vertex -0.014621697185207496 0.0085514047758812467 -0.00056358998926448346
    endloop
  endfacet
  facet normal -0.6150643993845063 0.59849743666603783 0.51331920177795654
    outer loop
      vertex -0.015006887510543876 0.0059965953519038441 0.0051851592989309589
      vertex -0.0098423690098343505 0.0014934840629361231 0.016623679449513602
      vertex -0.0055373641856171383 0.010204081499472576 0.011625980119045207
    endloop
  endfacet
  facet normal -0.59144566547010702 0.62276365973607228 0.51220840378575982
    outer loop
      vertex -0.015006887510543876 0.0059965953519038441 0.0051851592989309589
      vertex -0.016373029367630361 0.0031243394877958873 0.0070998836310397165
      vertex -0.0098423690098343505 0.0014934840629361231 0.016623679449513602
    endloop
  endfacet
  facet normal -0.59187218001407038 0.6221973675495307 0.51240390156577276
    outer loop
      vertex -0.016373029367630361 0.0031243394877958873 0.0070998836310397165
      vertex -0.01130806754807402 -0.001587048125785819 0.018671268912039116
      vertex -0.0098423690098343505 0.0014934840629361231 0.016623679449513602
    endloop
  endfacet
  facet normal -0.82451967386765057 0.29679513088291831 0.48174677755992762
    outer loop
      vertex -0.016373029367630361 0.0031243394877958873 0.0070998836310397165
      vertex -0.019162696771467917 -0.00060512497465477037 0.0046229625174227492
      vertex -0.01130806754807402 -0.001587048125785819 0.018671268912039116
    endloop
  endfacet
  facet normal -0.79242224792749383 0.38854377111622751 0.47021348227833504
    outer loop
      vertex -0.019162696771467917 -0.00060512497465477037 0.0046229625174227492
      vertex -0.015611761298797338 -0.007951137991135511 0.016677248672995568
      vertex -0.01130806754807402 -0.001587048125785819 0.018671268912039116
    endloop
  endfacet
  facet normal -0.96850446277598912 -0.082860370465259292 0.23480473715270875
    outer loop
      vertex -0.019162696771467917 -0.00060512497465477037 0.0046229625174227492
      vertex -0.017576204696550413 -0.0083996371123115435 0.0084161930211790782
      vertex -0.015611761298797338 -0.007951137991135511 0.016677248672995568
    endloop
  endfacet
  facet normal -0.97996996882726728 -0.12339381767229639 0.15631003153010092
    outer loop
      vertex -0.019162696771467917 -0.00060512497465477037 0.0046229625174227492
      vertex -0.020162194365677143 -0.00023836859392893303 -0.0013537630140208487
      vertex -0.017576204696550413 -0.0083996371123115435 0.0084161930211790782
    endloop
  endfacet
  facet normal -0.55892618956080553 -0.70318842679128857 -0.43946279825467671
    outer loop
      vertex -0.020162194365677143 -0.00023836859392893303 -0.0013537630140208487
      vertex -0.016167280064003427 -0.0021482246507634924 -0.003378675147169035
      vertex -0.017576204696550413 -0.0083996371123115435 0.0084161930211790782
    endloop
  endfacet
  facet normal -0.56940804524024213 -0.49599209652969434 -0.65556564751042656
    outer loop
      vertex -0.020162194365677143 -0.00023836859392893303 -0.0013537630140208487
      vertex -0.01887927179371135 0.0030664813022802506 -0.0049684824118927037
      vertex -0.016167280064003427 -0.0021482246507634924 -0.003378675147169035
    endloop
  endfacet
  facet normal -0.25251564828308637 -0.39993694855202133 -0.88107110073765926
    outer loop
      vertex -0.01887927179371135 0.0030664813022802506 -0.0049684824118927037
      vertex -0.012630142224522771 0.0050664499244080568 -0.0076673160818558021
      vertex -0.016167280064003427 -0.0021482246507634924 -0.003378675147169035
    endloop
  endfacet
  facet normal -0.41295047939834445 0.064379845284340154 -0.90847517141958378
    outer loop
      vertex -0.01887927179371135 0.0030664813022802506 -0.0049684824118927037
      vertex -0.016491586507185033 0.0072337946995118963 -0.0057584927660962191
      vertex -0.012630142224522771 0.0050664499244080568 -0.0076673160818558021
    endloop
  endfacet
  facet normal -0.42197723301133139 0.045639143225516786 -0.90545694730657489
    outer loop
      vertex -0.016491586507185033 0.0072337946995118963 -0.0057584927660962191
      vertex -0.0097385453896999038 0.010156972390891764 -0.0087583242742837967
      vertex -0.012630142224522771 0.0050664499244080568 -0.0076673160818558021
    endloop
  endfacet
  facet normal -0.42170423795866113 0.90416055458172473 -0.068258532259146104
    outer loop
      vertex -0.016491586507185033 0.0072337946995118963 -0.0057584927660962191
      vertex -0.0066560249592936584 0.012257480842773802 2.1310121978714101e-05
      vertex -0.0097385453896999038 0.010156972390891764 -0.0087583242742837967
    endloop
  endfacet
  facet normal -0.41563024627162731 0.90599205523422699 -0.080186621307095501
    outer loop
      vertex -0.016491586507185033 0.0072337946995118963 -0.0057584927660962191
      vertex -0.014621697185207496 0.0085514047758812467 -0.00056358998926448346
      vertex -0.0066560249592936584 0.012257480842773802 2.1310121978714101e-05
    endloop
  endfacet
  facet normal -0.42541527098101789 0.8832311525328701 0.19729312814085809
    outer loop
      vertex -0.014621697185207496 0.0085514047758812467 -0.00056358998926448346
      vertex -0.0055373641856171383 0.010204081499472576 0.011625980119045207
      vertex -0.0066560249592936584 0.012257480842773802 2.1310121978714101e-05
    endloop
  endfacet
  facet normal -0.55302287331074196 0.77448869657235864 0.30713671300705803
    outer loop
      vertex -0.014621697185207496 0.0085514047758812467 -0.00056358998926448346
      vertex -0.015006887510543876 0.0059965953519038441 0.0051851592989309589
      vertex -0.0055373641856171383 0.010204081499472576 0.011625980119045207
    endloop
  endfacet
  facet normal -0.2341735057286897 0.63455258943181125 0.73654991715437612
    outer loop
      vertex -0.0055373641856171383 0.010204081499472576 0.011625980119045207
      vertex -0.001513077730475894 0.0017632802613409366 0.020177353764061108
      vertex 0.00015061357144328263 0.005334285682247062 0.01762980298930894
    endloop
  endfacet
  facet normal -0.3335205992832489 0.58774605955086356 0.73710147153304173
    outer loop
      vertex -0.0055373641856171383 0.010204081499472576 0.011625980119045207
      vertex -0.0098423690098343505 0.0014934840629361231 0.016623679449513602
      vertex -0.001513077730475894 0.0017632802613409366 0.020177353764061108
    endloop
  endfacet
  facet normal -0.39167070203021581 -0.023524780093842398 0.91980467812068345
    outer loop
      vertex -0.0098423690098343505 0.0014934840629361231 0.016623679449513602
      vertex -0.0043582828250788184 -0.0024459843287984876 0.018858154667202746
      vertex -0.001513077730475894 0.0017632802613409366 0.020177353764061108
    endloop
  endfacet
  facet normal 0.043918593990580068 0.5384471537627209 0.84151400446262048
    outer loop
      vertex -0.0098423690098343505 0.0014934840629361231 0.016623679449513602
      vertex -0.01130806754807402 -0.001587048125785819 0.018671268912039116
      vertex -0.0043582828250788184 -0.0024459843287984876 0.018858154667202746
    endloop
  endfacet
  facet normal -0.058326155607744644 -0.2623529354465749 0.96320766028649629
    outer loop
      vertex -0.01130806754807402 -0.001587048125785819 0.018671268912039116
      vertex -0.015611761298797338 -0.007951137991135511 0.016677248672995568
      vertex -0.0043582828250788184 -0.0024459843287984876 0.018858154667202746
    endloop
  endfacet
  facet normal -0.28124594892695765 0.20338473871943119 0.93783546758917358
    outer loop
      vertex -0.015611761298797338 -0.007951137991135511 0.016677248672995568
      vertex -0.0090117866488229302 -0.010142341715195034 0.019131702156336382
      vertex -0.0043582828250788184 -0.0024459843287984876 0.018858154667202746
    endloop
  endfacet
  facet normal -0.3570917401337711 -0.92424853700622478 0.13509304560223775
    outer loop
      vertex -0.015611761298797338 -0.007951137991135511 0.016677248672995568
      vertex -0.017576204696550413 -0.0083996371123115435 0.0084161930211790782
      vertex -0.0090117866488229302 -0.010142341715195034 0.019131702156336382
    endloop
  endfacet
  facet normal -0.049335641045922557 -0.99132876939548575 -0.12179189419423489
    outer loop
      vertex -0.017576204696550413 -0.0083996371123115435 0.0084161930211790782
      vertex -0.010102368837493042 -0.0090209186028143706 0.010445619805982808
      vertex -0.0090117866488229302 -0.010142341715195034 0.019131702156336382
    endloop
  endfacet
  facet normal 0.00094914800253489116 -0.95521204674440818 -0.29592067327651855
    outer loop
      vertex -0.017576204696550413 -0.0083996371123115435 0.0084161930211790782
      vertex -0.010188121667249904 -0.0072456476620110146 0.0047148894645001535
      vertex -0.010102368837493042 -0.0090209186028143706 0.010445619805982808
    endloop
  endfacet
  facet normal -0.10162789410434538 -0.87391989232494316 -0.47532703787884351
    outer loop
      vertex -0.017576204696550413 -0.0083996371123115435 0.0084161930211790782
      vertex -0.016167280064003427 -0.0021482246507634924 -0.003378675147169035
      vertex -0.010188121667249904 -0.0072456476620110146 0.0047148894645001535
    endloop
  endfacet
  facet normal 0.12334598871273963 -0.79607253225751207 -0.59249834637202925
    outer loop
      vertex -0.016167280064003427 -0.0021482246507634924 -0.003378675147169035
      vertex -0.0083290409217278618 -0.0019522220838568208 -0.0020102610377135816
      vertex -0.010188121667249904 -0.0072456476620110146 0.0047148894645001535
    endloop
  endfacet
  facet normal 0.11907840857728361 -0.81634946948897391 -0.56514942827164949
    outer loop
      vertex -0.016167280064003427 -0.0021482246507634924 -0.003378675147169035
      vertex -0.0064429674678862913 0.0037507736994398769 -0.0098507484118226015
      vertex -0.0083290409217278618 -0.0019522220838568208 -0.0020102610377135816
    endloop
  endfacet
  facet normal -0.37579760520063971 -0.33041522452869776 -0.86579555284438514
    outer loop
      vertex -0.016167280064003427 -0.0021482246507634924 -0.003378675147169035
      vertex -0.012630142224522771 0.0050664499244080568 -0.0076673160818558021
      vertex -0.0064429674678862913 0.0037507736994398769 -0.0098507484118226015
    endloop
  endfacet
  facet normal -0.37690360646145937 -0.59657548177048225 -0.70854877459964782
    outer loop
      vertex -0.012630142224522771 0.0050664499244080568 -0.0076673160818558021
      vertex -0.0054550689481098046 0.0062442626303368838 -0.012475686795509514
      vertex -0.0064429674678862913 0.0037507736994398769 -0.0098507484118226015
    endloop
  endfacet
  facet normal -0.56723851906235256 0.14860356488047807 -0.81003545786389053
    outer loop
      vertex -0.012630142224522771 0.0050664499244080568 -0.0076673160818558021
      vertex -0.0097385453896999038 0.010156972390891764 -0.0087583242742837967
      vertex -0.0054550689481098046 0.0062442626303368838 -0.012475686795509514
    endloop
  endfacet
  facet normal -0.1636942492307967 0.57938049532615643 -0.79845001997894871
    outer loop
      vertex -0.0097385453896999038 0.010156972390891764 -0.0087583242742837967
      vertex -0.0034511384194571724 0.0089914721604402101 -0.010893060853624193
      vertex -0.0054550689481098046 0.0062442626303368838 -0.012475686795509514
    endloop
  endfacet
  facet normal 0.13451163911091232 0.98105084800840781 -0.13944838674462925
    outer loop
      vertex -0.0097385453896999038 0.010156972390891764 -0.0087583242742837967
      vertex -0.0013549238382696768 0.009810956883898209 -0.0031057965655778242
      vertex -0.0034511384194571724 0.0089914721604402101 -0.010893060853624193
    endloop
  endfacet
  facet normal 0.24423167529188844 0.9202024031120748 -0.30590591051968924
    outer loop
      vertex -0.0097385453896999038 0.010156972390891764 -0.0087583242742837967
      vertex -0.0066560249592936584 0.012257480842773802 2.1310121978714101e-05
      vertex -0.0013549238382696768 0.009810956883898209 -0.0031057965655778242
    endloop
  endfacet
  facet normal 0.46683021396527297 0.87817144870011499 0.10432860593853842
    outer loop
      vertex -0.0066560249592936584 0.012257480842773802 2.1310121978714101e-05
      vertex -0.00020246834752839574 0.0078249268238777432 0.0084545405135206878
      vertex -0.0013549238382696768 0.009810956883898209 -0.0031057965655778242
    endloop
  endfacet
  facet normal 0.45935461729659022 0.88120859056191392 0.11164566936602764
    outer loop
      vertex -0.0066560249592936584 0.012257480842773802 2.1310121978714101e-05
      vertex -0.0055373641856171383 0.010204081499472576 0.011625980119045207
      vertex -0.00020246834752839574 0.0078249268238777432 0.0084545405135206878
    endloop
  endfacet
  facet normal 0.49925831389186015 0.84085870047308386 0.20904014410771327
    outer loop
      vertex -0.0055373641856171383 0.010204081499472576 0.011625980119045207
      vertex 0.00015061357144328263 0.005334285682247062 0.01762980298930894
      vertex -0.00020246834752839574 0.0078249268238777432 0.0084545405135206878
    endloop
  endfacet
  facet normal 0.017201633789078682 0.57535062858826258 0.81772596753318127
    outer loop
      vertex 0.00015061357144328263 0.005334285682247062 0.01762980298930894
      vertex -0.001513077730475894 0.0017632802613409366 0.020177353764061108
      vertex 0.0062386508699133437 0.0025066656348600525 0.019491244161541972
    endloop
  endfacet
  facet normal 0.072303651563197791 0.15534856230355373 0.98521013299744664
    outer loop
      vertex -0.001513077730475894 0.0017632802613409366 0.020177353764061108
      vertex 0.0049275310105403617 0.00020942377058330791 0.019949696586279458
      vertex 0.0062386508699133437 0.0025066656348600525 0.019491244161541972
    endloop
  endfacet
  facet normal -0.033230576432221416 -0.27837369232478493 0.95989781550509234
    outer loop
      vertex -0.001513077730475894 0.0017632802613409366 0.020177353764061108
      vertex -0.0043582828250788184 -0.0024459843287984876 0.018858154667202746
      vertex 0.0049275310105403617 0.00020942377058330791 0.019949696586279458
    endloop
  endfacet
  facet normal -0.033275325735794017 -0.27823330078580399 0.9599369682593818
    outer loop
      vertex -0.0043582828250788184 -0.0024459843287984876 0.018858154667202746
      vertex 0.0012682641231891818 -0.0052034445519802252 0.018253956582966302
      vertex 0.0049275310105403617 0.00020942377058330791 0.019949696586279458
    endloop
  endfacet
  facet normal 0.13547621691822664 0.059737815579242175 0.98897805235472547
    outer loop
      vertex -0.0043582828250788184 -0.0024459843287984876 0.018858154667202746
      vertex -0.0015923119438843924 -0.010110898663296317 0.018942243457299474
      vertex 0.0012682641231891818 -0.0052034445519802252 0.018253956582966302
    endloop
  endfacet
  facet normal 0.025436511973412217 0.02014388669253471 0.99947346522433722
    outer loop
      vertex -0.0043582828250788184 -0.0024459843287984876 0.018858154667202746
      vertex -0.0090117866488229302 -0.010142341715195034 0.019131702156336382
      vertex -0.0015923119438843924 -0.010110898663296317 0.018942243457299474
    endloop
  endfacet
  facet normal 0.020875675476897577 -0.71494693750926663 0.69886699930638041
    outer loop
      vertex -0.0090117866488229302 -0.010142341715195034 0.019131702156336382
      vertex -0.0037755720495118213 -0.012785635069803635 0.016271180758841951
      vertex -0.0015923119438843924 -0.010110898663296317 0.018942243457299474
    endloop
  endfacet
  facet normal -0.47337114823485743 -0.87920166230810626 -0.054075808024251014
    outer loop
      vertex -0.0090117866488229302 -0.010142341715195034 0.019131702156336382
      vertex -0.010102368837493042 -0.0090209186028143706 0.010445619805982808
      vertex -0.0037755720495118213 -0.012785635069803635 0.016271180758841951
    endloop
  endfacet
  facet normal -0.16692137299365495 -0.9008066804004824 -0.40085481135166195
    outer loop
      vertex -0.010102368837493042 -0.0090209186028143706 0.010445619805982808
      vertex -0.0031610484772109353 -0.0083835953600998742 0.0061229580579647662
      vertex -0.0037755720495118213 -0.012785635069803635 0.016271180758841951
    endloop
  endfacet
  facet normal -0.095284018105005017 -0.95127249911627332 -0.29326027402095389
    outer loop
      vertex -0.010102368837493042 -0.0090209186028143706 0.010445619805982808
      vertex -0.010188121667249904 -0.0072456476620110146 0.0047148894645001535
      vertex -0.0031610484772109353 -0.0083835953600998742 0.0061229580579647662
    endloop
  endfacet
  facet normal -0.030642490916673242 -0.84663351098797146 -0.53129345546750528
    outer loop
      vertex -0.010188121667249904 -0.0072456476620110146 0.0047148894645001535
      vertex -0.0021031235746980835 -0.0046376823750012702 9.2707009933200345e-05
      vertex -0.0031610484772109353 -0.0083835953600998742 0.0061229580579647662
    endloop
  endfacet
  facet normal -0.11572920361372073 -0.76470754680341213 -0.63389992845309684
    outer loop
      vertex -0.010188121667249904 -0.0072456476620110146 0.0047148894645001535
      vertex -0.0083290409217278618 -0.0019522220838568208 -0.0020102610377135816
      vertex -0.0021031235746980835 -0.0046376823750012702 9.2707009933200345e-05
    endloop
  endfacet
  facet normal -0.43772864929890776 -0.88327551157392248 0.16798214261277736
    outer loop
      vertex -0.0083290409217278618 -0.0019522220838568208 -0.0020102610377135816
      vertex -0.0040640354691510745 -0.0051804961666330959 -0.0078712433459678637
      vertex -0.0021031235746980835 -0.0046376823750012702 9.2707009933200345e-05
    endloop
  endfacet
  facet normal -0.84115665561833375 -0.32057964329543459 -0.43552746528037928
    outer loop
      vertex -0.0083290409217278618 -0.0019522220838568208 -0.0020102610377135816
      vertex -0.0064429674678862913 0.0037507736994398769 -0.0098507484118226015
      vertex -0.0040640354691510745 -0.0051804961666330959 -0.0078712433459678637
    endloop
  endfacet
  facet normal -0.96770034501338131 -0.24895822684552921 0.039696895935488613
    outer loop
      vertex -0.0064429674678862913 0.0037507736994398769 -0.0098507484118226015
      vertex -0.0046285471677267129 -0.0039919124314789171 -0.014178297346391268
      vertex -0.0040640354691510745 -0.0051804961666330959 -0.0078712433459678637
    endloop
  endfacet
  facet normal -0.78240730046708717 0.15392830836532048 -0.6034441913380193
    outer loop
      vertex -0.0064429674678862913 0.0037507736994398769 -0.0098507484118226015
      vertex -0.0035580520078477458 -0.0019502064327566364 -0.015045464327452187
      vertex -0.0046285471677267129 -0.0039919124314789171 -0.014178297346391268
    endloop
  endfacet
  facet normal 0.042438556016917095 0.68456642114242705 -0.72771408122108527
    outer loop
      vertex -0.0064429674678862913 0.0037507736994398769 -0.0098507484118226015
      vertex -0.00055503097923139929 0.0017374587656520998 -0.011401319309756157
      vertex -0.0035580520078477458 -0.0019502064327566364 -0.015045464327452187
    endloop
  endfacet
  facet normal -0.38826454674100741 -0.59075194751231719 -0.70729256906488469
    outer loop
      vertex -0.0064429674678862913 0.0037507736994398769 -0.0098507484118226015
      vertex -0.0054550689481098046 0.0062442626303368838 -0.012475686795509514
      vertex -0.00055503097923139929 0.0017374587656520998 -0.011401319309756157
    endloop
  endfacet
  facet normal 0.17538263310582139 -0.043775474063923438 -0.98352663404472562
    outer loop
      vertex -0.0054550689481098046 0.0062442626303368838 -0.012475686795509514
      vertex 0.0037671306375112353 0.0086475194433588004 -0.010938148423165367
      vertex -0.00055503097923139929 0.0017374587656520998 -0.011401319309756157
    endloop
  endfacet
  facet normal 0.017867907383695088 0.48927999964131852 -0.87194370221747619
    outer loop
      vertex -0.0054550689481098046 0.0062442626303368838 -0.012475686795509514
      vertex -0.0034511384194571724 0.0089914721604402101 -0.010893060853624193
      vertex 0.0037671306375112353 0.0086475194433588004 -0.010938148423165367
    endloop
  endfacet
  facet normal 0.046541110887762652 0.99204957375654734 -0.11692548142635741
    outer loop
      vertex -0.0034511384194571724 0.0089914721604402101 -0.010893060853624193
      vertex -0.0013549238382696768 0.009810956883898209 -0.0031057965655778242
      vertex 0.0037671306375112353 0.0086475194433588004 -0.010938148423165367
    endloop
  endfacet
  facet normal -0.58636568704318048 0.6522580779891135 -0.48034849927560586
    outer loop
      vertex -0.0013549238382696768 0.009810956883898209 -0.0031057965655778242
      vertex 0.0066866138197447696 0.012748596326761638 -0.0089331962579250954
      vertex 0.0037671306375112353 0.0086475194433588004 -0.010938148423165367
    endloop
  endfacet
  facet normal -0.18767155582227454 0.95653191462256404 0.22321756974695942
    outer loop
      vertex -0.0013549238382696768 0.009810956883898209 -0.0031057965655778242
      vertex 0.0069579921486310013 0.011900932214718059 -0.0050726230502457451
      vertex 0.0066866138197447696 0.012748596326761638 -0.0089331962579250954
    endloop
  endfacet
  facet normal -0.079053474404387064 0.83166812436609616 0.5496168475383324
    outer loop
      vertex -0.0013549238382696768 0.009810956883898209 -0.0031057965655778242
      vertex 0.0054692190890388466 0.0071218143727818329 0.0019448970749870211
      vertex 0.0069579921486310013 0.011900932214718059 -0.0050726230502457451
    endloop
  endfacet
  facet normal 0.27432625143471345 0.95194354383475499 0.1361932345056327
    outer loop
      vertex -0.0013549238382696768 0.009810956883898209 -0.0031057965655778242
      vertex -0.00020246834752839574 0.0078249268238777432 0.0084545405135206878
      vertex 0.0054692190890388466 0.0071218143727818329 0.0019448970749870211
    endloop
  endfacet
  facet normal 0.43115664857175223 0.85670633203501267 0.28312224399274805
    outer loop
      vertex -0.00020246834752839574 0.0078249268238777432 0.0084545405135206878
      vertex 0.0054879471407793447 0.0040341667779875594 0.011259363096236019
      vertex 0.0054692190890388466 0.0071218143727818329 0.0019448970749870211
    endloop
  endfacet
  facet normal 0.46579540764287553 0.85835669248135671 0.21507772244301104
    outer loop
      vertex -0.00020246834752839574 0.0078249268238777432 0.0084545405135206878
      vertex 0.00015061357144328263 0.005334285682247062 0.01762980298930894
      vertex 0.0054879471407793447 0.0040341667779875594 0.011259363096236019
    endloop
  endfacet
  facet normal 0.38325311366718612 0.913781816414445 0.13460996565902608
    outer loop
      vertex 0.00015061357144328263 0.005334285682247062 0.01762980298930894
      vertex 0.0062386508699133437 0.0025066656348600525 0.019491244161541972
      vertex 0.0054879471407793447 0.0040341667779875594 0.011259363096236019
    endloop
  endfacet
  facet normal -0.21905604345109483 0.20048716382706908 0.95489232218514031
    outer loop
      vertex 0.0062386508699133437 0.0025066656348600525 0.019491244161541972
      vertex 0.01034046909925309 -0.0036964633241278189 0.021734613130321302
      vertex 0.012969359059991673 0.0007069533284772677 0.021413158789103479
    endloop
  endfacet
  facet normal -0.12585687098121617 0.26274094575606233 0.95662283239008417
    outer loop
      vertex 0.0062386508699133437 0.0025066656348600525 0.019491244161541972
      vertex 0.0049275310105403617 0.00020942377058330791 0.019949696586279458
      vertex 0.01034046909925309 -0.0036964633241278189 0.021734613130321302
    endloop
  endfacet
  facet normal -0.42060734971829056 -0.1761959618508302 0.88996878618882835
    outer loop
      vertex 0.0049275310105403617 0.00020942377058330791 0.019949696586279458
      vertex 0.0063656672729892711 -0.0091985459128074987 0.018766783655080631
      vertex 0.01034046909925309 -0.0036964633241278189 0.021734613130321302
    endloop
  endfacet
  facet normal -0.2180305768740412 -0.15449194258189017 0.96363629405769435
    outer loop
      vertex 0.0049275310105403617 0.00020942377058330791 0.019949696586279458
      vertex 0.0012682641231891818 -0.0052034445519802252 0.018253956582966302
      vertex 0.0063656672729892711 -0.0091985459128074987 0.018766783655080631
    endloop
  endfacet
  facet normal -0.61919544639388524 -0.78366488935185319 0.049662262959163081
    outer loop
      vertex 0.0012682641231891818 -0.0052034445519802252 0.018253956582966302
      vertex 0.0053668083250354931 -0.0087956249474639495 0.012670929773266835
      vertex 0.0063656672729892711 -0.0091985459128074987 0.018766783655080631
    endloop
  endfacet
  facet normal -0.10855562010155739 -0.87035735962953609 0.48030588574685279
    outer loop
      vertex 0.0012682641231891818 -0.0052034445519802252 0.018253956582966302
      vertex 0.0021714759127062187 -0.011897094829644492 0.0063285997717524699
      vertex 0.0053668083250354931 -0.0087956249474639495 0.012670929773266835
    endloop
  endfacet
  facet normal 0.83889699107500626 -0.44504948504889003 0.31334133819689142
    outer loop
      vertex 0.0012682641231891818 -0.0052034445519802252 0.018253956582966302
      vertex -0.0015923119438843924 -0.010110898663296317 0.018942243457299474
      vertex 0.0021714759127062187 -0.011897094829644492 0.0063285997717524699
    endloop
  endfacet
  facet normal 0.58554235547838174 -0.75988931798629777 0.28232671561711525
    outer loop
      vertex -0.0015923119438843924 -0.010110898663296317 0.018942243457299474
      vertex -0.0037755720495118213 -0.012785635069803635 0.016271180758841951
      vertex 0.0021714759127062187 -0.011897094829644492 0.0063285997717524699
    endloop
  endfacet
  facet normal -0.50122308976294283 -0.78235784020664512 -0.36971830378773829
    outer loop
      vertex -0.0037755720495118213 -0.012785635069803635 0.016271180758841951
      vertex -0.0031610484772109353 -0.0083835953600998742 0.0061229580579647662
      vertex 0.0021714759127062187 -0.011897094829644492 0.0063285997717524699
    endloop
  endfacet
  facet normal -0.54980153510086938 -0.82799996628209371 0.11015592511335534
    outer loop
      vertex -0.0031610484772109353 -0.0083835953600998742 0.0061229580579647662
      vertex 0.0012515019182857091 -0.011887005929099241 0.0018127327899075461
      vertex 0.0021714759127062187 -0.011897094829644492 0.0063285997717524699
    endloop
  endfacet
  facet normal -0.77975276542016425 -0.46127399185460144 -0.423334299647604
    outer loop
      vertex -0.0031610484772109353 -0.0083835953600998742 0.0061229580579647662
      vertex -0.0021031235746980835 -0.0046376823750012702 9.2707009933200345e-05
      vertex 0.0012515019182857091 -0.011887005929099241 0.0018127327899075461
    endloop
  endfacet
  facet normal -0.90860527026288673 -0.41746554197729857 0.012608890201242409
    outer loop
      vertex -0.0021031235746980835 -0.0046376823750012702 9.2707009933200345e-05
      vertex 0.00031970486105768574 -0.010153105986321074 -0.0079258116582340502
      vertex 0.0012515019182857091 -0.011887005929099241 0.0018127327899075461
    endloop
  endfacet
  facet normal -0.7298904706048911 -0.64591020848206526 0.22374070594960024
    outer loop
      vertex -0.0021031235746980835 -0.0046376823750012702 9.2707009933200345e-05
      vertex -0.0040640354691510745 -0.0051804961666330959 -0.0078712433459678637
      vertex 0.00031970486105768574 -0.010153105986321074 -0.0079258116582340502
    endloop
  endfacet
  facet normal -0.69349085214536355 -0.61547567198576703 0.37451319761039903
    outer loop
      vertex -0.0040640354691510745 -0.0051804961666330959 -0.0078712433459678637
      vertex -0.0032159237506855622 -0.012469608189670339 -0.018279724080631901
      vertex 0.00031970486105768574 -0.010153105986321074 -0.0079258116582340502
    endloop
  endfacet
  facet normal -0.98065184825147145 -0.18866693507810556 0.05221819729947489
    outer loop
      vertex -0.0040640354691510745 -0.0051804961666330959 -0.0078712433459678637
      vertex -0.0046285471677267129 -0.0039919124314789171 -0.014178297346391268
      vertex -0.0032159237506855622 -0.012469608189670339 -0.018279724080631901
    endloop
  endfacet
  facet normal -0.93375358413213416 0.017362963931957218 -0.35749513507723579
    outer loop
      vertex -0.0046285471677267129 -0.0039919124314789171 -0.014178297346391268
      vertex -0.001732173038372344 -0.0088049647386303845 -0.021977196700033022
      vertex -0.0032159237506855622 -0.012469608189670339 -0.018279724080631901
    endloop
  endfacet
  facet normal -0.84893653257850521 0.2465708429423214 -0.46745008617423284
    outer loop
      vertex -0.0046285471677267129 -0.0039919124314789171 -0.014178297346391268
      vertex -0.0035580520078477458 -0.0019502064327566364 -0.015045464327452187
      vertex -0.001732173038372344 -0.0088049647386303845 -0.021977196700033022
    endloop
  endfacet
  facet normal -0.5814692855147352 0.49669896756321669 -0.64434742617986607
    outer loop
      vertex -0.0035580520078477458 -0.0019502064327566364 -0.015045464327452187
      vertex 0.00090571944741287729 -0.0047441049415220399 -0.021227335072536442
      vertex -0.001732173038372344 -0.0088049647386303845 -0.021977196700033022
    endloop
  endfacet
  facet normal -0.28280074558052282 0.78081464766206177 -0.55709265324133517
    outer loop
      vertex -0.0035580520078477458 -0.0019502064327566364 -0.015045464327452187
      vertex -0.00055503097923139929 0.0017374587656520998 -0.011401319309756157
      vertex 0.00090571944741287729 -0.0047441049415220399 -0.021227335072536442
    endloop
  endfacet
  facet normal -0.17483426894216506 0.80974725508605294 -0.56012709386715209
    outer loop
      vertex -0.00055503097923139929 0.0017374587656520998 -0.011401319309756157
      vertex 0.0043914821922201083 -0.00065938756981476394 -0.016410289212962274
      vertex 0.00090571944741287729 -0.0047441049415220399 -0.021227335072536442
    endloop
  endfacet
  facet normal -0.5523126438878958 0.39468313607497041 -0.73428602431177259
    outer loop
      vertex -0.00055503097923139929 0.0017374587656520998 -0.011401319309756157
      vertex 0.0037671306375112353 0.0086475194433588004 -0.010938148423165367
      vertex 0.0043914821922201083 -0.00065938756981476394 -0.016410289212962274
    endloop
  endfacet
  facet normal -0.53430222436670549 0.40151293806873184 -0.74384709020080519
    outer loop
      vertex 0.0037671306375112353 0.0086475194433588004 -0.010938148423165367
      vertex 0.008410625954553325 0.0057227063089989923 -0.015852303818495346
      vertex 0.0043914821922201083 -0.00065938756981476394 -0.016410289212962274
    endloop
  endfacet
  facet normal -0.36595656998274018 0.60586616214634237 -0.70640072370611995
    outer loop
      vertex 0.0037671306375112353 0.0086475194433588004 -0.010938148423165367
      vertex 0.0066866138197447696 0.012748596326761638 -0.0089331962579250954
      vertex 0.008410625954553325 0.0057227063089989923 -0.015852303818495346
    endloop
  endfacet
  facet normal -0.41694398619235301 0.58377933306458729 -0.69667740214872531
    outer loop
      vertex 0.0066866138197447696 0.012748596326761638 -0.0089331962579250954
      vertex 0.013091139944503659 0.012431956806908517 -0.013031472233356064
      vertex 0.008410625954553325 0.0057227063089989923 -0.015852303818495346
    endloop
  endfacet
  facet normal 0.17524622443227283 0.96412596141341433 0.19937374789799381
    outer loop
      vertex 0.0066866138197447696 0.012748596326761638 -0.0089331962579250954
      vertex 0.0069579921486310013 0.011900932214718059 -0.0050726230502457451
      vertex 0.013091139944503659 0.012431956806908517 -0.013031472233356064
    endloop
  endfacet
  facet normal 0.38297224985085482 0.85402335894818704 0.35210276655407069
    outer loop
      vertex 0.0069579921486310013 0.011900932214718059 -0.0050726230502457451
      vertex 0.012738646406827035 0.0086974534496337998 -0.0035900572257451108
      vertex 0.013091139944503659 0.012431956806908517 -0.013031472233356064
    endloop
  endfacet
  facet normal 0.27579261556765772 0.76624895483092659 0.58034556293544881
    outer loop
      vertex 0.0069579921486310013 0.011900932214718059 -0.0050726230502457451
      vertex 0.0054692190890388466 0.0071218143727818329 0.0019448970749870211
      vertex 0.012738646406827035 0.0086974534496337998 -0.0035900572257451108
    endloop
  endfacet
  facet normal 0.19648907398096285 0.84436960329446509 0.49842955052690358
    outer loop
      vertex 0.0054692190890388466 0.0071218143727818329 0.0019448970749870211
      vertex 0.011631964231473668 0.0041848655307024493 0.0044908100151880223
      vertex 0.012738646406827035 0.0086974534496337998 -0.0035900572257451108
    endloop
  endfacet
  facet normal 0.30711052739745187 0.90351978261728938 0.29888982314703366
    outer loop
      vertex 0.0054692190890388466 0.0071218143727818329 0.0019448970749870211
      vertex 0.0054879471407793447 0.0040341667779875594 0.011259363096236019
      vertex 0.011631964231473668 0.0041848655307024493 0.0044908100151880223
    endloop
  endfacet
  facet normal 0.12983112772873467 0.98164438992353764 0.13970744434113186
    outer loop
      vertex 0.0054879471407793447 0.0040341667779875594 0.011259363096236019
      vertex 0.012591891344860441 0.0028050019260317215 0.013294256048551573
      vertex 0.011631964231473668 0.0041848655307024493 0.0044908100151880223
    endloop
  endfacet
  facet normal 0.12037777523166288 0.97797784232452045 0.17049495931713277
    outer loop
      vertex 0.0054879471407793447 0.0040341667779875594 0.011259363096236019
      vertex 0.0062386508699133437 0.0025066656348600525 0.019491244161541972
      vertex 0.012591891344860441 0.0028050019260317215 0.013294256048551573
    endloop
  endfacet
  facet normal 0.18701851260579164 0.95318397426841361 0.23762236245898558
    outer loop
      vertex 0.0062386508699133437 0.0025066656348600525 0.019491244161541972
      vertex 0.012969359059991673 0.0007069533284772677 0.021413158789103479
      vertex 0.012591891344860441 0.0028050019260317215 0.013294256048551573
    endloop
  endfacet
  facet normal 0.40475000128345429 -0.17613621162032064 0.89730344444735377
    outer loop
      vertex 0.012969359059991673 0.0007069533284772677 0.021413158789103479
      vertex 0.01034046909925309 -0.0036964633241278189 0.021734613130321302
      vertex 0.016453348114228415 -0.0048653256476189812 0.018747812191010335
    endloop
  endfacet
  facet normal 0.46311821628687627 0.24687570414382901 0.85121906959768634
    outer loop
      vertex 0.01034046909925309 -0.0036964633241278189 0.021734613130321302
      vertex 0.014516215615665585 -0.008761330256449958 0.020931680357259369
      vertex 0.016453348114228415 -0.0048653256476189812 0.018747812191010335
    endloop
  endfacet
  facet normal -0.22558420121104888 -0.33122683765947614 0.91618805393765967
    outer loop
      vertex 0.01034046909925309 -0.0036964633241278189 0.021734613130321302
      vertex 0.0063656672729892711 -0.0091985459128074987 0.018766783655080631
      vertex 0.014516215615665585 -0.008761330256449958 0.020931680357259369
    endloop
  endfacet
  facet normal -0.25672107794842003 0.00017438627906131291 0.96648551863254883
    outer loop
      vertex 0.0063656672729892711 -0.0091985459128074987 0.018766783655080631
      vertex 0.010626579654354618 -0.014772143922555801 0.019899586948558673
      vertex 0.014516215615665585 -0.008761330256449958 0.020931680357259369
    endloop
  endfacet
  facet normal -0.80000620850321258 -0.59291215940718311 0.09189797377214276
    outer loop
      vertex 0.0063656672729892711 -0.0091985459128074987 0.018766783655080631
      vertex 0.0053668083250354931 -0.0087956249474639495 0.012670929773266835
      vertex 0.010626579654354618 -0.014772143922555801 0.019899586948558673
    endloop
  endfacet
  facet normal -0.8532704549228276 -0.14514190413518616 0.50086261431634471
    outer loop
      vertex 0.0053668083250354931 -0.0087956249474639495 0.012670929773266835
      vertex 0.0021714759127062187 -0.011897094829644492 0.0063285997717524699
      vertex 0.010626579654354618 -0.014772143922555801 0.019899586948558673
    endloop
  endfacet
  facet normal -0.82470781787964342 -0.35776024078639251 0.43802354416247918
    outer loop
      vertex 0.0021714759127062187 -0.011897094829644492 0.0063285997717524699
      vertex 0.0072081535425126721 -0.017470135797821786 0.011259784333722366
      vertex 0.010626579654354618 -0.014772143922555801 0.019899586948558673
    endloop
  endfacet
  facet normal -0.79901045250293135 -0.57922905862443252 0.16148063176775859
    outer loop
      vertex 0.0021714759127062187 -0.011897094829644492 0.0063285997717524699
      vertex 0.0012515019182857091 -0.011887005929099241 0.0018127327899075461
      vertex 0.0072081535425126721 -0.017470135797821786 0.011259784333722366
    endloop
  endfacet
  facet normal -0.8730392853810639 -0.14213795046009692 0.46647530397688192
    outer loop
      vertex 0.0012515019182857091 -0.011887005929099241 0.0018127327899075461
      vertex 0.0054863831620302374 -0.019043652397826551 0.0075579171772311299
      vertex 0.0072081535425126721 -0.017470135797821786 0.011259784333722366
    endloop
  endfacet
  facet normal -0.42688055491398708 -0.70612517965475685 -0.56494267186491032
    outer loop
      vertex 0.0012515019182857091 -0.011887005929099241 0.0018127327899075461
      vertex 0.007038323135359249 -0.014013044239614456 9.7457388302459209e-05
      vertex 0.0054863831620302374 -0.019043652397826551 0.0075579171772311299
    endloop
  endfacet
  facet normal -0.37513686634342736 -0.91814821316719319 -0.12757817277231981
    outer loop
      vertex 0.0012515019182857091 -0.011887005929099241 0.0018127327899075461
      vertex 0.00031970486105768574 -0.010153105986321074 -0.0079258116582340502
      vertex 0.007038323135359249 -0.014013044239614456 9.7457388302459209e-05
    endloop
  endfacet
  facet normal -0.12144007580056126 -0.9303773329147943 -0.34590508291713179
    outer loop
      vertex 0.00031970486105768574 -0.010153105986321074 -0.0079258116582340502
      vertex 0.0072719096590339195 -0.0098960003271251415 -0.01105812051588342
      vertex 0.007038323135359249 -0.014013044239614456 9.7457388302459209e-05
    endloop
  endfacet
  facet normal 0.11666051681346246 -0.97695576003841578 0.17873938218696298
    outer loop
      vertex 0.00031970486105768574 -0.010153105986321074 -0.0079258116582340502
      vertex -0.0032159237506855622 -0.012469608189670339 -0.018279724080631901
      vertex 0.0072719096590339195 -0.0098960003271251415 -0.01105812051588342
    endloop
  endfacet
  facet normal 0.35494540684510045 -0.91554090360210483 -0.18920521132095636
    outer loop
      vertex -0.0032159237506855622 -0.012469608189670339 -0.018279724080631901
      vertex 0.0066442381963325286 -0.0088665299888237709 -0.017217101541394615
      vertex 0.0072719096590339195 -0.0098960003271251415 -0.01105812051588342
    endloop
  endfacet
  facet normal 0.33188912074878629 -0.73320636419270424 -0.59351330148187331
    outer loop
      vertex -0.0032159237506855622 -0.012469608189670339 -0.018279724080631901
      vertex -0.001732173038372344 -0.0088049647386303845 -0.021977196700033022
      vertex 0.0066442381963325286 -0.0088665299888237709 -0.017217101541394615
    endloop
  endfacet
  facet normal 0.48421945243461212 0.20999589397332105 -0.84937226608729699
    outer loop
      vertex -0.001732173038372344 -0.0088049647386303845 -0.021977196700033022
      vertex 0.0081399173973170993 -0.0068701942580562704 -0.015870861128531324
      vertex 0.0066442381963325286 -0.0088665299888237709 -0.017217101541394615
    endloop
  endfacet
  facet normal 0.54355091365830521 -0.20267548947257483 -0.81453977817432222
    outer loop
      vertex -0.001732173038372344 -0.0088049647386303845 -0.021977196700033022
      vertex 0.00090571944741287729 -0.0047441049415220399 -0.021227335072536442
      vertex 0.0081399173973170993 -0.0068701942580562704 -0.015870861128531324
    endloop
  endfacet
  facet normal 0.62231011308597561 0.33460131314646091 -0.70765251669981666
    outer loop
      vertex 0.00090571944741287729 -0.0047441049415220399 -0.021227335072536442
      vertex 0.0096772329749147228 -0.0050899296985260044 -0.013677177288402979
      vertex 0.0081399173973170993 -0.0068701942580562704 -0.015870861128531324
    endloop
  endfacet
  facet normal 0.62766150204538174 0.30768405014776651 -0.71510248505707341
    outer loop
      vertex 0.00090571944741287729 -0.0047441049415220399 -0.021227335072536442
      vertex 0.0043914821922201083 -0.00065938756981476394 -0.016410289212962274
      vertex 0.0096772329749147228 -0.0050899296985260044 -0.013677177288402979
    endloop
  endfacet
  facet normal 0.23511514246908691 -0.29149058383891424 -0.92722926469939992
    outer loop
      vertex 0.0043914821922201083 -0.00065938756981476394 -0.016410289212962274
      vertex 0.011326332875018254 -0.0022343664148974027 -0.014156715055062467
      vertex 0.0096772329749147228 -0.0050899296985260044 -0.013677177288402979
    endloop
  endfacet
  facet normal 0.28743536264634484 -0.09770991486533287 -0.95280306718512076
    outer loop
      vertex 0.0043914821922201083 -0.00065938756981476394 -0.016410289212962274
      vertex 0.008410625954553325 0.0057227063089989923 -0.015852303818495346
      vertex 0.011326332875018254 -0.0022343664148974027 -0.014156715055062467
    endloop
  endfacet
  facet normal 0.21465951278570558 -0.12768095084848863 -0.96830721796392139
    outer loop
      vertex 0.008410625954553325 0.0057227063089989923 -0.015852303818495346
      vertex 0.014699533959076427 0.0032718579321014745 -0.014134976354129835
      vertex 0.011326332875018254 -0.0022343664148974027 -0.014156715055062467
    endloop
  endfacet
  facet normal 0.32024389285887422 0.16853425922167278 -0.93222317743939176
    outer loop
      vertex 0.008410625954553325 0.0057227063089989923 -0.015852303818495346
      vertex 0.013091139944503659 0.012431956806908517 -0.013031472233356064
      vertex 0.014699533959076427 0.0032718579321014745 -0.014134976354129835
    endloop
  endfacet
  facet normal 0.42687986688966761 0.18167420881377194 -0.88587135696790065
    outer loop
      vertex 0.013091139944503659 0.012431956806908517 -0.013031472233356064
      vertex 0.01765499007067068 0.0073475001240438436 -0.011874982545325256
      vertex 0.014699533959076427 0.0032718579321014745 -0.014134976354129835
    endloop
  endfacet
  facet normal 0.70306586558471185 0.67908337689542797 0.21105486460615439
    outer loop
      vertex 0.013091139944503659 0.012431956806908517 -0.013031472233356064
      vertex 0.017671124847300476 0.0067758031288598477 -0.010089256752856204
      vertex 0.01765499007067068 0.0073475001240438436 -0.011874982545325256
    endloop
  endfacet
  facet normal 0.66044691462120064 0.68947600867013326 0.2973763716834929
    outer loop
      vertex 0.013091139944503659 0.012431956806908517 -0.013031472233356064
      vertex 0.012738646406827035 0.0086974534496337998 -0.0035900572257451108
      vertex 0.017671124847300476 0.0067758031288598477 -0.010089256752856204
    endloop
  endfacet
  facet normal 0.70470264987432474 0.61555900256503726 0.35281906073969604
    outer loop
      vertex 0.012738646406827035 0.0086974534496337998 -0.0035900572257451108
      vertex 0.016727171765073406 0.0015498376758528712 0.00091382315999157318
      vertex 0.017671124847300476 0.0067758031288598477 -0.010089256752856204
    endloop
  endfacet
  facet normal 0.63663224495356163 0.63289644249757759 0.44061488599376508
    outer loop
      vertex 0.012738646406827035 0.0086974534496337998 -0.0035900572257451108
      vertex 0.011631964231473668 0.0041848655307024493 0.0044908100151880223
      vertex 0.016727171765073406 0.0015498376758528712 0.00091382315999157318
    endloop
  endfacet
  facet normal 0.58925960347358086 0.75732914162137344 0.28147058632331751
    outer loop
      vertex 0.011631964231473668 0.0041848655307024493 0.0044908100151880223
      vertex 0.016453348114228415 -0.0048653256476189812 0.018747812191010335
      vertex 0.016727171765073406 0.0015498376758528712 0.00091382315999157318
    endloop
  endfacet
  facet normal 0.90134175693547858 0.43202868819906765 -0.030565499790733267
    outer loop
      vertex 0.011631964231473668 0.0041848655307024493 0.0044908100151880223
      vertex 0.012591891344860441 0.0028050019260317215 0.013294256048551573
      vertex 0.016453348114228415 -0.0048653256476189812 0.018747812191010335
    endloop
  endfacet
  facet normal 0.86304763980126287 0.49732847484210468 0.08839207851779296
    outer loop
      vertex 0.012591891344860441 0.0028050019260317215 0.013294256048551573
      vertex 0.012969359059991673 0.0007069533284772677 0.021413158789103479
      vertex 0.016453348114228415 -0.0048653256476189812 0.018747812191010335
    endloop
  endfacet
  facet normal 0.72426337815278652 0.026117408246493116 0.68902862063429537
    outer loop
      vertex 0.016453348114228415 -0.0048653256476189812 0.018747812191010335
      vertex 0.014516215615665585 -0.008761330256449958 0.020931680357259369
      vertex 0.019660494818103842 -0.010723444884142178 0.015598712212658171
    endloop
  endfacet
  facet normal 0.67680970046351752 -0.17140259102985408 0.71592582098059321
    outer loop
      vertex 0.014516215615665585 -0.008761330256449958 0.020931680357259369
      vertex 0.015229468974483523 -0.018728141345726739 0.017871204016090103
      vertex 0.019660494818103842 -0.010723444884142178 0.015598712212658171
    endloop
  endfacet
  facet normal 0.17784062065345854 -0.27720805118099529 0.94420782140693338
    outer loop
      vertex 0.014516215615665585 -0.008761330256449958 0.020931680357259369
      vertex 0.010626579654354618 -0.014772143922555801 0.019899586948558673
      vertex 0.015229468974483523 -0.018728141345726739 0.017871204016090103
    endloop
  endfacet
  facet normal 0.058949566984532853 -0.40030081160319969 0.91448576193517417
    outer loop
      vertex 0.010626579654354618 -0.014772143922555801 0.019899586948558673
      vertex 0.012956182900417343 -0.022010203771056332 0.01658107674237836
      vertex 0.015229468974483523 -0.018728141345726739 0.017871204016090103
    endloop
  endfacet
  facet normal -0.77144645261852962 -0.45310836499989554 0.44672494928021228
    outer loop
      vertex 0.010626579654354618 -0.014772143922555801 0.019899586948558673
      vertex 0.0072081535425126721 -0.017470135797821786 0.011259784333722366
      vertex 0.012956182900417343 -0.022010203771056332 0.01658107674237836
    endloop
  endfacet
  facet normal -0.74621793969103012 -0.59512267265641772 0.29830821472691016
    outer loop
      vertex 0.0072081535425126721 -0.017470135797821786 0.011259784333722366
      vertex 0.011807568234062125 -0.022560310746688704 0.012610358052998217
      vertex 0.012956182900417343 -0.022010203771056332 0.01658107674237836
    endloop
  endfacet
  facet normal -0.71816919718763594 -0.68353543821892027 -0.13043124207694637
    outer loop
      vertex 0.0072081535425126721 -0.017470135797821786 0.011259784333722366
      vertex 0.011645787532850189 -0.021810419055115663 0.0095712730654272903
      vertex 0.011807568234062125 -0.022560310746688704 0.012610358052998217
    endloop
  endfacet
  facet normal -0.48560019637447516 -0.70013327743117426 0.52345567445062013
    outer loop
      vertex 0.0072081535425126721 -0.017470135797821786 0.011259784333722366
      vertex 0.0054863831620302374 -0.019043652397826551 0.0075579171772311299
      vertex 0.011645787532850189 -0.021810419055115663 0.0095712730654272903
    endloop
  endfacet
  facet normal -0.47698756068309883 -0.80476491832981367 0.35332179833573168
    outer loop
      vertex 0.0054863831620302374 -0.019043652397826551 0.0075579171772311299
      vertex 0.010467137623620682 -0.022601214804571449 0.0061788811227989609
      vertex 0.011645787532850189 -0.021810419055115663 0.0095712730654272903
    endloop
  endfacet
  facet normal -0.5987059587699437 -0.66536258438775375 -0.44591905793564351
    outer loop
      vertex 0.0054863831620302374 -0.019043652397826551 0.0075579171772311299
      vertex 0.011065099314340448 -0.020107467192944758 0.0016550789951851794
      vertex 0.010467137623620682 -0.022601214804571449 0.0061788811227989609
    endloop
  endfacet
  facet normal -0.64990940166348299 -0.56057868698121116 -0.51319519223374921
    outer loop
      vertex 0.0054863831620302374 -0.019043652397826551 0.0075579171772311299
      vertex 0.007038323135359249 -0.014013044239614456 9.7457388302459209e-05
      vertex 0.011065099314340448 -0.020107467192944758 0.0016550789951851794
    endloop
  endfacet
  facet normal -0.78413431716204873 -0.57669472355853058 -0.22925219403215577
    outer loop
      vertex 0.007038323135359249 -0.014013044239614456 9.7457388302459209e-05
      vertex 0.0072719096590339195 -0.0098960003271251415 -0.01105812051588342
      vertex 0.011065099314340448 -0.020107467192944758 0.0016550789951851794
    endloop
  endfacet
  facet normal -0.4503706873399117 -0.75689584841737756 -0.47357672940455331
    outer loop
      vertex 0.0072719096590339195 -0.0098960003271251415 -0.01105812051588342
      vertex 0.012641225172637207 -0.013491067216680794 -0.010418501070346172
      vertex 0.011065099314340448 -0.020107467192944758 0.0016550789951851794
    endloop
  endfacet
  facet normal -0.5591648780688655 -0.82812116172982608 0.039369793363364984
    outer loop
      vertex 0.0072719096590339195 -0.0098960003271251415 -0.01105812051588342
      vertex 0.012248984562762509 -0.013339150448031696 -0.012793969008192563
      vertex 0.012641225172637207 -0.013491067216680794 -0.010418501070346172
    endloop
  endfacet
  facet normal -0.58495522200559191 -0.80755614218983163 -0.07536886266798018
    outer loop
      vertex 0.0072719096590339195 -0.0098960003271251415 -0.01105812051588342
      vertex 0.0066442381963325286 -0.0088665299888237709 -0.017217101541394615
      vertex 0.012248984562762509 -0.013339150448031696 -0.012793969008192563
    endloop
  endfacet
  facet normal 0.63846633878346915 0.039970512297623828 -0.76861114510986506
    outer loop
      vertex 0.0066442381963325286 -0.0088665299888237709 -0.017217101541394615
      vertex 0.0081399173973170993 -0.0068701942580562704 -0.015870861128531324
      vertex 0.012248984562762509 -0.013339150448031696 -0.012793969008192563
    endloop
  endfacet
  facet normal 0.2259359523336163 -0.29766534789031524 -0.92754961382582624
    outer loop
      vertex 0.0081399173973170993 -0.0068701942580562704 -0.015870861128531324
      vertex 0.013695689227718712 -0.01082389068291633 -0.013248762013879077
      vertex 0.012248984562762509 -0.013339150448031696 -0.012793969008192563
    endloop
  endfacet
  facet normal 0.59692215808272864 0.3649496818494995 -0.71448979482411579
    outer loop
      vertex 0.0081399173973170993 -0.0068701942580562704 -0.015870861128531324
      vertex 0.0096772329749147228 -0.0050899296985260044 -0.013677177288402979
      vertex 0.013695689227718712 -0.01082389068291633 -0.013248762013879077
    endloop
  endfacet
  facet normal 0.62625768163962414 0.38838527491529662 -0.67598683006130567
    outer loop
      vertex 0.0096772329749147228 -0.0050899296985260044 -0.013677177288402979
      vertex 0.014824884648736165 -0.0095685212949285121 -0.011481369162083407
      vertex 0.013695689227718712 -0.01082389068291633 -0.013248762013879077
    endloop
  endfacet
  facet normal 0.17710920135097569 -0.26161166845763506 -0.94878430937891878
    outer loop
      vertex 0.0096772329749147228 -0.0050899296985260044 -0.013677177288402979
      vertex 0.011326332875018254 -0.0022343664148974027 -0.014156715055062467
      vertex 0.014824884648736165 -0.0095685212949285121 -0.011481369162083407
    endloop
  endfacet
  facet normal 0.52712785241499194 -0.057814396240444925 -0.84781703379662721
    outer loop
      vertex 0.011326332875018254 -0.0022343664148974027 -0.014156715055062467
      vertex 0.017874045418427575 -0.0051144867207181411 -0.0098892918686974592
      vertex 0.014824884648736165 -0.0095685212949285121 -0.011481369162083407
    endloop
  endfacet
  facet normal 0.44109063169011764 -0.26683620579612466 -0.85687659199650268
    outer loop
      vertex 0.011326332875018254 -0.0022343664148974027 -0.014156715055062467
      vertex 0.014699533959076427 0.0032718579321014745 -0.014134976354129835
      vertex 0.017874045418427575 -0.0051144867207181411 -0.0098892918686974592
    endloop
  endfacet
  facet normal 0.60530450916113199 -0.16509074716526567 -0.77868574944557412
    outer loop
      vertex 0.014699533959076427 0.0032718579321014745 -0.014134976354129835
      vertex 0.019941252029750278 -0.002058507396805959 -0.0089302713988522412
      vertex 0.017874045418427575 -0.0051144867207181411 -0.0098892918686974592
    endloop
  endfacet
  facet normal 0.66566886914158097 -0.07077227988133622 -0.74288373320201773
    outer loop
      vertex 0.014699533959076427 0.0032718579321014745 -0.014134976354129835
      vertex 0.01765499007067068 0.0073475001240438436 -0.011874982545325256
      vertex 0.019941252029750278 -0.002058507396805959 -0.0089302713988522412
    endloop
  endfacet
  facet normal 0.96353144668827639 0.2572587911440205 0.073655044782516874
    outer loop
      vertex 0.01765499007067068 0.0073475001240438436 -0.011874982545325256
      vertex 0.017671124847300476 0.0067758031288598477 -0.010089256752856204
      vertex 0.019941252029750278 -0.002058507396805959 -0.0089302713988522412
    endloop
  endfacet
  facet normal 0.96805983604160173 0.23869580472143415 -0.076710277352476944
    outer loop
      vertex 0.017671124847300476 0.0067758031288598477 -0.010089256752856204
      vertex 0.020345726743377548 -0.0025718372632409815 -0.0054232310297425779
      vertex 0.019941252029750278 -0.002058507396805959 -0.0089302713988522412
    endloop
  endfacet
  facet normal 0.88723616242852621 0.38255155469877899 0.2578105895355135
    outer loop
      vertex 0.017671124847300476 0.0067758031288598477 -0.010089256752856204
      vertex 0.016727171765073406 0.0015498376758528712 0.00091382315999157318
      vertex 0.020345726743377548 -0.0025718372632409815 -0.0054232310297425779
    endloop
  endfacet
  facet normal 0.85668337812899442 0.48592052803737407 0.17313240617912606
    outer loop
      vertex 0.016727171765073406 0.0015498376758528712 0.00091382315999157318
      vertex 0.020276007608911781 -0.0063234425201160512 0.0054511585348257048
      vertex 0.020345726743377548 -0.0025718372632409815 -0.0054232310297425779
    endloop
  endfacet
  facet normal 0.8493247596480541 0.49242421028468392 0.19017320992789852
    outer loop
      vertex 0.016727171765073406 0.0015498376758528712 0.00091382315999157318
      vertex 0.016453348114228415 -0.0048653256476189812 0.018747812191010335
      vertex 0.020276007608911781 -0.0063234425201160512 0.0054511585348257048
    endloop
  endfacet
  facet normal 0.8365333320811601 0.51613402354988425 0.18389576953100126
    outer loop
      vertex 0.016453348114228415 -0.0048653256476189812 0.018747812191010335
      vertex 0.02021884495720111 -0.0092628967511173901 0.013961255350999341
      vertex 0.020276007608911781 -0.0063234425201160512 0.0054511585348257048
    endloop
  endfacet
  facet normal 0.8528674143567081 0.20993001486216303 0.47806543734982043
    outer loop
      vertex 0.016453348114228415 -0.0048653256476189812 0.018747812191010335
      vertex 0.019660494818103842 -0.010723444884142178 0.015598712212658171
      vertex 0.02021884495720111 -0.0092628967511173901 0.013961255350999341
    endloop
  endfacet
  facet normal 0.5809969230366453 -0.092031013156583089 0.80868588960072962
    outer loop
      vertex 0.019660494818103842 -0.010723444884142178 0.015598712212658171
      vertex 0.015229468974483523 -0.018728141345726739 0.017871204016090103
      vertex 0.023710864847206733 -0.015120255444804921 0.01218837021202597
    endloop
  endfacet
  facet normal 0.6021548993936342 -0.61648762919182853 0.50729920184214827
    outer loop
      vertex 0.015229468974483523 -0.018728141345726739 0.017871204016090103
      vertex 0.012956182900417343 -0.022010203771056332 0.01658107674237836
      vertex 0.023710864847206733 -0.015120255444804921 0.01218837021202597
    endloop
  endfacet
  facet normal 0.5649132383613531 -0.81931100940130641 0.097992361936539152
    outer loop
      vertex 0.012956182900417343 -0.022010203771056332 0.01658107674237836
      vertex 0.019240632650202039 -0.01931523653936645 0.0028845751983092686
      vertex 0.023710864847206733 -0.015120255444804921 0.01218837021202597
    endloop
  endfacet
  facet normal 0.40898721799774346 -0.91250406502310866 0.0081109081346448925
    outer loop
      vertex 0.012956182900417343 -0.022010203771056332 0.01658107674237836
      vertex 0.011807568234062125 -0.022560310746688704 0.012610358052998217
      vertex 0.019240632650202039 -0.01931523653936645 0.0028845751983092686
    endloop
  endfacet
  facet normal 0.10253339934233002 -0.96448039915420436 -0.24344293308012238
    outer loop
      vertex 0.011807568234062125 -0.022560310746688704 0.012610358052998217
      vertex 0.011645787532850189 -0.021810419055115663 0.0095712730654272903
      vertex 0.019240632650202039 -0.01931523653936645 0.0028845751983092686
    endloop
  endfacet
  facet normal 0.37701646457614929 -0.9223872284995086 0.084026103917154801
    outer loop
      vertex 0.011645787532850189 -0.021810419055115663 0.0095712730654272903
      vertex 0.010467137623620682 -0.022601214804571449 0.0061788811227989609
      vertex 0.019240632650202039 -0.01931523653936645 0.0028845751983092686
    endloop
  endfacet
  facet normal 0.15404447424054415 -0.87376763940818647 -0.46130295065065402
    outer loop
      vertex 0.010467137623620682 -0.022601214804571449 0.0061788811227989609
      vertex 0.011065099314340448 -0.020107467192944758 0.0016550789951851794
      vertex 0.019240632650202039 -0.01931523653936645 0.0028845751983092686
    endloop
  endfacet
  facet normal 0.15304150712247833 -0.87925466750895931 -0.45109813429163065
    outer loop
      vertex 0.011065099314340448 -0.020107467192944758 0.0016550789951851794
      vertex 0.020870934154191827 -0.012180630114676926 -0.010468688188541299
      vertex 0.019240632650202039 -0.01931523653936645 0.0028845751983092686
    endloop
  endfacet
  facet normal 0.13668982710444982 -0.87613373256024429 -0.46228300188976196
    outer loop
      vertex 0.011065099314340448 -0.020107467192944758 0.0016550789951851794
      vertex 0.012641225172637207 -0.013491067216680794 -0.010418501070346172
      vertex 0.020870934154191827 -0.012180630114676926 -0.010468688188541299
    endloop
  endfacet
  facet normal 0.15610424480611335 -0.9837508153987462 -0.088689333946167126
    outer loop
      vertex 0.012641225172637207 -0.013491067216680794 -0.010418501070346172
      vertex 0.012248984562762509 -0.013339150448031696 -0.012793969008192563
      vertex 0.020870934154191827 -0.012180630114676926 -0.010468688188541299
    endloop
  endfacet
  facet normal 0.28681039088144833 -0.32773061253227076 -0.90018467288198889
    outer loop
      vertex 0.012248984562762509 -0.013339150448031696 -0.012793969008192563
      vertex 0.013695689227718712 -0.01082389068291633 -0.013248762013879077
      vertex 0.020870934154191827 -0.012180630114676926 -0.010468688188541299
    endloop
  endfacet
  facet normal 0.38261839804760622 0.62008964601043337 -0.68490290726944558
    outer loop
      vertex 0.013695689227718712 -0.01082389068291633 -0.013248762013879077
      vertex 0.014824884648736165 -0.0095685212949285121 -0.011481369162083407
      vertex 0.020870934154191827 -0.012180630114676926 -0.010468688188541299
    endloop
  endfacet
  facet normal 0.41895780887169998 0.87320148568699896 -0.24898497902371897
    outer loop
      vertex 0.014824884648736165 -0.0095685212949285121 -0.011481369162083407
      vertex 0.022820981262114078 -0.011218622038417501 -0.0038136106354232403
      vertex 0.020870934154191827 -0.012180630114676926 -0.010468688188541299
    endloop
  endfacet
  facet normal 0.65864147248065985 -0.19071511951851414 -0.72788677273017321
    outer loop
      vertex 0.014824884648736165 -0.0095685212949285121 -0.011481369162083407
      vertex 0.017874045418427575 -0.0051144867207181411 -0.0098892918686974592
      vertex 0.022820981262114078 -0.011218622038417501 -0.0038136106354232403
    endloop
  endfacet
  facet normal 0.64652985017637377 -0.20690831307081653 -0.73429428896941895
    outer loop
      vertex 0.017874045418427575 -0.0051144867207181411 -0.0098892918686974592
      vertex 0.019941252029750278 -0.002058507396805959 -0.0089302713988522412
      vertex 0.022820981262114078 -0.011218622038417501 -0.0038136106354232403
    endloop
  endfacet
  facet normal 0.96234083583307517 0.26195941880474233 -0.072645568258358953
    outer loop
      vertex 0.019941252029750278 -0.002058507396805959 -0.0089302713988522412
      vertex 0.020345726743377548 -0.0025718372632409815 -0.0054232310297425779
      vertex 0.022820981262114078 -0.011218622038417501 -0.0038136106354232403
    endloop
  endfacet
  facet normal 0.87013720319370425 0.16247984649670744 -0.46525428219484966
    outer loop
      vertex 0.020345726743377548 -0.0025718372632409815 -0.0054232310297425779
      vertex 0.024611221106033442 -0.0096033856144622405 9.8653532178266711e-05
      vertex 0.022820981262114078 -0.011218622038417501 -0.0038136106354232403
    endloop
  endfacet
  facet normal 0.74715139063668889 0.62682208515976623 0.22104043301085133
    outer loop
      vertex 0.020345726743377548 -0.0025718372632409815 -0.0054232310297425779
      vertex 0.020276007608911781 -0.0063234425201160512 0.0054511585348257048
      vertex 0.024611221106033442 -0.0096033856144622405 9.8653532178266711e-05
    endloop
  endfacet
  facet normal 0.74733810378872922 0.62646985260975918 0.22140750302682405
    outer loop
      vertex 0.020276007608911781 -0.0063234425201160512 0.0054511585348257048
      vertex 0.02021884495720111 -0.0092628967511173901 0.013961255350999341
      vertex 0.024611221106033442 -0.0096033856144622405 9.8653532178266711e-05
    endloop
  endfacet
  facet normal 0.86170430206839532 0.43431642510258156 0.2623641337586628
    outer loop
      vertex 0.02021884495720111 -0.0092628967511173901 0.013961255350999341
      vertex 0.023710864847206733 -0.015120255444804921 0.01218837021202597
      vertex 0.024611221106033442 -0.0096033856144622405 9.8653532178266711e-05
    endloop
  endfacet
  facet normal 0.7849603030237855 0.30469899078981749 0.53944030966222167
    outer loop
      vertex 0.02021884495720111 -0.0092628967511173901 0.013961255350999341
      vertex 0.019660494818103842 -0.010723444884142178 0.015598712212658171
      vertex 0.023710864847206733 -0.015120255444804921 0.01218837021202597
    endloop
  endfacet
  facet normal 0.4307641501890363 -0.88207576159123346 0.19074747108458051
    outer loop
      vertex 0.023710864847206733 -0.015120255444804921 0.01218837021202597
      vertex 0.019240632650202039 -0.01931523653936645 0.0028845751983092686
      vertex 0.021595457266720984 -0.018298559526812332 0.0022681168307648165
    endloop
  endfacet
  facet normal 0.26061873119270462 -0.86438497015250604 -0.43001918599750405
    outer loop
      vertex 0.019240632650202039 -0.01931523653936645 0.0028845751983092686
      vertex 0.020870934154191827 -0.012180630114676926 -0.010468688188541299
      vertex 0.021595457266720984 -0.018298559526812332 0.0022681168307648165
    endloop
  endfacet
  facet normal 0.03532160822848724 -0.90005718596757256 -0.43433793983520202
    outer loop
      vertex 0.020870934154191827 -0.012180630114676926 -0.010468688188541299
      vertex 0.02230070146522118 -0.014596167060481773 -0.0053468168003223335
      vertex 0.021595457266720984 -0.018298559526812332 0.0022681168307648165
    endloop
  endfacet
  facet normal 0.96026563077313254 -0.02161117214529942 -0.27824966414064906
    outer loop
      vertex 0.020870934154191827 -0.012180630114676926 -0.010468688188541299
      vertex 0.022820981262114078 -0.011218622038417501 -0.0038136106354232403
      vertex 0.02230070146522118 -0.014596167060481773 -0.0053468168003223335
    endloop
  endfacet
  facet normal 0.89822038083515232 0.059338520880946904 -0.43552162677875755
    outer loop
      vertex 0.022820981262114078 -0.011218622038417501 -0.0038136106354232403
      vertex 0.024611221106033442 -0.0096033856144622405 9.8653532178266711e-05
      vertex 0.02230070146522118 -0.014596167060481773 -0.0053468168003223335
    endloop
  endfacet
  facet normal 0.93647868505158371 -0.3401490056164459 -0.08547705202099512
    outer loop
      vertex 0.024611221106033442 -0.0096033856144622405 9.8653532178266711e-05
      vertex 0.023710864847206733 -0.015120255444804921 0.01218837021202597
      vertex 0.02230070146522118 -0.014596167060481773 -0.0053468168003223335
    endloop
  endfacet
  facet normal 0.93161082216314972 -0.35326316925087731 -0.085477536694304648
    outer loop
      vertex 0.023710864847206733 -0.015120255444804921 0.01218837021202597
      vertex 0.021595457266720984 -0.018298559526812332 0.0022681168307648165
      vertex 0.02230070146522118 -0.014596167060481773 -0.0053468168003223335
    endloop
  endfacet
endsolid OBJECT
