solid OBJECT
  facet normal -0.70078283928483742 0.59443705524696255 -0.39439573972496372
    outer loop
      vertex -0.01502794394936203 0.0059825330588915591 -0.0051362417640920446
      vertex -0.016405903510899399 0.00310180931944312 -0.0070296661789314699
      vertex -0.018553128195848992 0.0046740166455331994 -0.0008447197944668743
    endloop
  endfacet
  facet normal -0.84455928635838595 0.36984006883366816 -0.38721820116172428
    outer loop
      vertex -0.016405903510899399 0.00310180931944312 -0.0070296661789314699
      vertex -0.019183932324346412 -0.00061413990729195476 -0.0045197038077055222
      vertex -0.018553128195848992 0.0046740166455331994 -0.0008447197944668743
    endloop
  endfacet
  facet normal -0.95758019541650075 0.23251967800254889 -0.17021976585487159
    outer loop
      vertex -0.019183932324346412 -0.00061413990729195476 -0.0045197038077055222
      vertex -0.020150806342542286 -0.00021807608621276717 0.0014605185144238308
      vertex -0.018553128195848992 0.0046740166455331994 -0.0008447197944668743
    endloop
  endfacet
  facet normal -0.94408158793522678 0.32725467199497454 0.040178787676611045
    outer loop
      vertex -0.020150806342542286 -0.00021807608621276717 0.0014605185144238308
      vertex -0.018846600232293169 0.0031033882614552623 0.005052270736547659
      vertex -0.018553128195848992 0.0046740166455331994 -0.0008447197944668743
    endloop
  endfacet
  facet normal -0.87068423172507858 0.4843245613523276 0.085666142064324879
    outer loop
      vertex -0.018846600232293169 0.0031033882614552623 0.005052270736547659
      vertex -0.016452611023499618 0.0072732474459634607 0.005809202623709619
      vertex -0.018553128195848992 0.0046740166455331994 -0.0008447197944668743
    endloop
  endfacet
  facet normal -0.68886506540394776 0.7220074233880549 -0.064577103051753681
    outer loop
      vertex -0.016452611023499618 0.0072732474459634607 0.005809202623709619
      vertex -0.014610338517580193 0.0085648531943617566 0.00059794018014469943
      vertex -0.018553128195848992 0.0046740166455331994 -0.0008447197944668743
    endloop
  endfacet
  facet normal -0.61851406689566935 0.73235894928922196 -0.28476432088336828
    outer loop
      vertex -0.014610338517580193 0.0085648531943617566 0.00059794018014469943
      vertex -0.01502794394936203 0.0059825330588915591 -0.0051362417640920446
      vertex -0.018553128195848992 0.0046740166455331994 -0.0008447197944668743
    endloop
  endfacet
  facet normal -0.61753892954990108 0.59634250927058796 -0.51285600525607689
    outer loop
      vertex -0.0055913824862297602 0.010153911800287265 -0.011648544563676108
      vertex -0.0099278181028609035 0.0014216131260366095 -0.016580773236875269
      vertex -0.01502794394936203 0.0059825330588915591 -0.0051362417640920446
    endloop
  endfacet
  facet normal -0.59390058950897728 0.62060300429007331 -0.51199023510905406
    outer loop
      vertex -0.0099278181028609035 0.0014216131260366095 -0.016580773236875269
      vertex -0.016405903510899399 0.00310180931944312 -0.0070296661789314699
      vertex -0.01502794394936203 0.0059825330588915591 -0.0051362417640920446
    endloop
  endfacet
  facet normal -0.59432935485410621 0.62003479640851611 -0.51218109024187153
    outer loop
      vertex -0.0099278181028609035 0.0014216131260366095 -0.016580773236875269
      vertex -0.01140615744025675 -0.0016679926299545634 -0.018605530946612103
      vertex -0.016405903510899399 0.00310180931944312 -0.0070296661789314699
    endloop
  endfacet
  facet normal -0.826972635080369 0.29490479815533804 -0.47869345185952794
    outer loop
      vertex -0.01140615744025675 -0.0016679926299545634 -0.018605530946612103
      vertex -0.019183932324346412 -0.00061413990729195476 -0.0045197038077055222
      vertex -0.016405903510899399 0.00310180931944312 -0.0070296661789314699
    endloop
  endfacet
  facet normal -0.79476839691167711 0.38668705980794221 -0.46777805960469293
    outer loop
      vertex -0.01140615744025675 -0.0016679926299545634 -0.018605530946612103
      vertex -0.015702141229339654 -0.0080200802369217034 -0.016557461249548933
      vertex -0.019183932324346412 -0.00061413990729195476 -0.0045197038077055222
    endloop
  endfacet
  facet normal -0.96980486244040087 -0.083466974912357578 -0.22915451748969545
    outer loop
      vertex -0.015702141229339654 -0.0080200802369217034 -0.016557461249548933
      vertex -0.017622025141816669 -0.0084278176535950312 -0.0082838064984272659
      vertex -0.019183932324346412 -0.00061413990729195476 -0.0045197038077055222
    endloop
  endfacet
  facet normal -0.98086650120462859 -0.12361767604253811 -0.15039806177086418
    outer loop
      vertex -0.017622025141816669 -0.0084278176535950312 -0.0082838064984272659
      vertex -0.020150806342542286 -0.00021807608621276717 0.0014605185144238308
      vertex -0.019183932324346412 -0.00061413990729195476 -0.0045197038077055222
    endloop
  endfacet
  facet normal -0.55690305982129096 -0.70075438517566335 0.4458724858283607
    outer loop
      vertex -0.017622025141816669 -0.0084278176535950312 -0.0082838064984272659
      vertex -0.016145956961263593 -0.0021203471877738128 0.0034729505143007615
      vertex -0.020150806342542286 -0.00021807608621276717 0.0014605185144238308
    endloop
  endfacet
  facet normal -0.56610550872600784 -0.49252288901154201 0.66101872650462201
    outer loop
      vertex -0.016145956961263593 -0.0021203471877738128 0.0034729505143007615
      vertex -0.018846600232293169 0.0031033882614552623 0.005052270736547659
      vertex -0.020150806342542286 -0.00021807608621276717 0.0014605185144238308
    endloop
  endfacet
  facet normal -0.24793173030592999 -0.39554900407715982 0.88434769320730122
    outer loop
      vertex -0.016145956961263593 -0.0021203471877738128 0.0034729505143007615
      vertex -0.012581967748496849 0.0051130911530920722 0.0077074901335703362
      vertex -0.018846600232293169 0.0031033882614552623 0.005052270736547659
    endloop
  endfacet
  facet normal -0.40798507375630455 0.068975155366623575 0.91037937560898907
    outer loop
      vertex -0.012581967748496849 0.0051130911530920722 0.0077074901335703362
      vertex -0.016452611023499618 0.0072732474459634607 0.005809202623709619
      vertex -0.018846600232293169 0.0031033882614552623 0.005052270736547659
    endloop
  endfacet
  facet normal -0.41703522408244242 0.050229604657759608 0.90750129955302672
    outer loop
      vertex -0.012581967748496849 0.0051130911530920722 0.0077074901335703362
      vertex -0.0096819229487557102 0.010207258487074744 0.0087582245205429995
      vertex -0.016452611023499618 0.0072732474459634607 0.005809202623709619
    endloop
  endfacet
  facet normal -0.42086983862179034 0.90470366135270341 0.066180541501873066
    outer loop
      vertex -0.0096819229487557102 0.010207258487074744 0.0087582245205429995
      vertex -0.0066459745036418216 0.012263778007590504 -4.8013604272918557e-05
      vertex -0.016452611023499618 0.0072732474459634607 0.005809202623709619
    endloop
  endfacet
  facet normal -0.41471948570440592 0.90659258087781935 0.078087389983067607
    outer loop
      vertex -0.0066459745036418216 0.012263778007590504 -4.8013604272918557e-05
      vertex -0.014610338517580193 0.0085648531943617566 0.00059794018014469943
      vertex -0.016452611023499618 0.0072732474459634607 0.005809202623709619
    endloop
  endfacet
  facet normal -0.42602328953669227 0.88250169732769035 -0.19923581752807754
    outer loop
      vertex -0.0066459745036418216 0.012263778007590504 -4.8013604272918557e-05
      vertex -0.0055913824862297602 0.010153911800287265 -0.011648544563676108
      vertex -0.014610338517580193 0.0085648531943617566 0.00059794018014469943
    endloop
  endfacet
  facet normal -0.55429422548538942 0.77328672734699722 -0.30787261798107868
    outer loop
      vertex -0.0055913824862297602 0.010153911800287265 -0.011648544563676108
      vertex -0.01502794394936203 0.0059825330588915591 -0.0051362417640920446
      vertex -0.014610338517580193 0.0085648531943617566 0.00059794018014469943
    endloop
  endfacet
  facet normal -0.23785842633654572 0.6311155001400155 -0.73832011655089014
    outer loop
      vertex 6.1477605189426887e-05 0.0052522209702841518 -0.01765964105944505
      vertex -0.0016177975017654359 0.0016698690357869589 -0.020180834857044937
      vertex -0.0055913824862297602 0.010153911800287265 -0.011648544563676108
    endloop
  endfacet
  facet normal -0.33721956497785205 0.58436412506405344 -0.73810672286212886
    outer loop
      vertex -0.0016177975017654359 0.0016698690357869589 -0.020180834857044937
      vertex -0.0099278181028609035 0.0014216131260366095 -0.016580773236875269
      vertex -0.0055913824862297602 0.010153911800287265 -0.011648544563676108
    endloop
  endfacet
  facet normal -0.39666742212086142 -0.027770359354455369 -0.91754224064579981
    outer loop
      vertex -0.0016177975017654359 0.0016698690357869589 -0.020180834857044937
      vertex -0.0044579038117223066 -0.0025314705853213219 -0.0188258559748814
      vertex -0.0099278181028609035 0.0014216131260366095 -0.016580773236875269
    endloop
  endfacet
  facet normal 0.039633378611745526 0.53436111899701688 -0.84432658953989725
    outer loop
      vertex -0.0044579038117223066 -0.0025314705853213219 -0.0188258559748814
      vertex -0.01140615744025675 -0.0016679926299545634 -0.018605530946612103
      vertex -0.0099278181028609035 0.0014216131260366095 -0.016580773236875269
    endloop
  endfacet
  facet normal -0.063670145081214213 -0.26698149595176307 -0.96159606563499189
    outer loop
      vertex -0.0044579038117223066 -0.0025314705853213219 -0.0188258559748814
      vertex -0.015702141229339654 -0.0080200802369217034 -0.016557461249548933
      vertex -0.01140615744025675 -0.0016679926299545634 -0.018605530946612103
    endloop
  endfacet
  facet normal -0.28622889862747825 0.1990195168517713 -0.93726423675641668
    outer loop
      vertex -0.0044579038117223066 -0.0025314705853213219 -0.0188258559748814
      vertex -0.0091166759224549053 -0.010226576564576548 -0.019037110236100593
      vertex -0.015702141229339654 -0.0080200802369217034 -0.016557461249548933
    endloop
  endfacet
  facet normal -0.35828833351895684 -0.92469622461733414 -0.12871038125441789
    outer loop
      vertex -0.0091166759224549053 -0.010226576564576548 -0.019037110236100593
      vertex -0.017622025141816669 -0.0084278176535950312 -0.0082838064984272659
      vertex -0.015702141229339654 -0.0080200802369217034 -0.016557461249548933
    endloop
  endfacet
  facet normal -0.049171586986828664 -0.99070522998547428 0.12682784517851345
    outer loop
      vertex -0.0091166759224549053 -0.010226576564576548 -0.019037110236100593
      vertex -0.010159603776432836 -0.0090628019603108019 -0.010350727780206527
      vertex -0.017622025141816669 -0.0084278176535950312 -0.0082838064984272659
    endloop
  endfacet
  facet normal 0.002079976175795909 -0.95377303424586202 0.30052066957956419
    outer loop
      vertex -0.010159603776432836 -0.0090628019603108019 -0.010350727780206527
      vertex -0.010213354790214102 -0.0072598453333939557 -0.0046282488042938552
      vertex -0.017622025141816669 -0.0084278176535950312 -0.0082838064984272659
    endloop
  endfacet
  facet normal -0.099478526656613372 -0.87156488193308257 0.48008195062426717
    outer loop
      vertex -0.010213354790214102 -0.0072598453333939557 -0.0046282488042938552
      vertex -0.016145956961263593 -0.0021203471877738128 0.0034729505143007615
      vertex -0.017622025141816669 -0.0084278176535950312 -0.0082838064984272659
    endloop
  endfacet
  facet normal 0.12616694118290006 -0.79327063332805781 0.59565393077847861
    outer loop
      vertex -0.010213354790214102 -0.0072598453333939557 -0.0046282488042938552
      vertex -0.0083151261787599833 -0.0019350180575434788 0.0020610974788673785
      vertex -0.016145956961263593 -0.0021203471877738128 0.0034729505143007615
    endloop
  endfacet
  facet normal 0.12174042520762249 -0.81367943050493918 0.56842330462730406
    outer loop
      vertex -0.0083151261787599833 -0.0019350180575434788 0.0020610974788673785
      vertex -0.0063837074664543168 0.0038046801074280408 0.0098636322496086885
      vertex -0.016145956961263593 -0.0021203471877738128 0.0034729505143007615
    endloop
  endfacet
  facet normal -0.37125809876180382 -0.3260377922480624 0.86940599384279604
    outer loop
      vertex -0.0063837074664543168 0.0038046801074280408 0.0098636322496086885
      vertex -0.012581967748496849 0.0051130911530920722 0.0077074901335703362
      vertex -0.016145956961263593 -0.0021203471877738128 0.0034729505143007615
    endloop
  endfacet
  facet normal -0.37335135270363645 -0.59296115733966914 0.71344644740916952
    outer loop
      vertex -0.0063837074664543168 0.0038046801074280408 0.0098636322496086885
      vertex -0.005380325784052468 0.0063102788361620379 0.012471167317135308
      vertex -0.012581967748496849 0.0051130911530920722 0.0077074901335703362
    endloop
  endfacet
  facet normal -0.56276293453381487 0.15281237837719808 0.81237076297069732
    outer loop
      vertex -0.005380325784052468 0.0063102788361620379 0.012471167317135308
      vertex -0.0096819229487557102 0.010207258487074744 0.0087582245205429995
      vertex -0.012581967748496849 0.0051130911530920722 0.0077074901335703362
    endloop
  endfacet
  facet normal -0.15906791081991595 0.58331699696650641 0.79651659166483413
    outer loop
      vertex -0.005380325784052468 0.0063102788361620379 0.012471167317135308
      vertex -0.0033836281263615493 0.0090487558104065877 0.010864434132512753
      vertex -0.0096819229487557102 0.010207258487074744 0.0087582245205429995
    endloop
  endfacet
  facet normal 0.13575648001434271 0.98164066147799389 0.13398428962815717
    outer loop
      vertex -0.0033836281263615493 0.0090487558104065877 0.010864434132512753
      vertex -0.0013292753310102509 0.0098295946244818643 0.0030620653841892049
      vertex -0.0096819229487557102 0.010207258487074744 0.0087582245205429995
    endloop
  endfacet
  facet normal 0.24634656838602936 0.92153816703017732 0.30013459472558041
    outer loop
      vertex -0.0013292753310102509 0.0098295946244818643 0.0030620653841892049
      vertex -0.0066459745036418216 0.012263778007590504 -4.8013604272918557e-05
      vertex -0.0096819229487557102 0.010207258487074744 0.0087582245205429995
    endloop
  endfacet
  facet normal 0.4666972592810622 0.87741215924036953 -0.11109262350263087
    outer loop
      vertex -0.0013292753310102509 0.0098295946244818643 0.0030620653841892049
      vertex -0.00024055665867598729 0.007787262568719441 -0.0084946421446001289
      vertex -0.0066459745036418216 0.012263778007590504 -4.8013604272918557e-05
    endloop
  endfacet
  facet normal 0.45918350281891901 0.88041798496441159 -0.11838362424825896
    outer loop
      vertex -0.00024055665867598729 0.007787262568719441 -0.0084946421446001289
      vertex -0.0055913824862297602 0.010153911800287265 -0.011648544563676108
      vertex -0.0066459745036418216 0.012263778007590504 -4.8013604272918557e-05
    endloop
  endfacet
  facet normal 0.49853834869093366 0.83957770546063293 -0.21579803376763149
    outer loop
      vertex -0.00024055665867598729 0.007787262568719441 -0.0084946421446001289
      vertex 6.1477605189426887e-05 0.0052522209702841518 -0.01765964105944505
      vertex -0.0055913824862297602 0.010153911800287265 -0.011648544563676108
    endloop
  endfacet
  facet normal 0.013063380328430959 0.5713845163322695 -0.82057850483066708
    outer loop
      vertex 0.0061379242365034023 0.0024124808705542917 -0.019540271103881422
      vertex -0.0016177975017654359 0.0016698690357869589 -0.020180834857044937
      vertex 6.1477605189426887e-05 0.0052522209702841518 -0.01765964105944505
    endloop
  endfacet
  facet normal 0.06704535293971163 0.15057329767892147 -0.98632276800005203
    outer loop
      vertex 0.0061379242365034023 0.0024124808705542917 -0.019540271103881422
      vertex 0.0048231820666595811 0.00011373773275618129 -0.019980569859690871
      vertex -0.0016177975017654359 0.0016698690357869589 -0.020180834857044937
    endloop
  endfacet
  facet normal -0.038575196059333836 -0.28299976568723606 -0.95834392932284684
    outer loop
      vertex 0.0048231820666595811 0.00011373773275618129 -0.019980569859690871
      vertex -0.0044579038117223066 -0.0025314705853213219 -0.0188258559748814
      vertex -0.0016177975017654359 0.0016698690357869589 -0.020180834857044937
    endloop
  endfacet
  facet normal -0.038625383484476951 -0.28284299635766763 -0.95838818813781979
    outer loop
      vertex 0.0048231820666595811 0.00011373773275618129 -0.019980569859690871
      vertex 0.0011704558798813535 -0.0052889493553519469 -0.018238895478921636
      vertex -0.0044579038117223066 -0.0025314705853213219 -0.0188258559748814
    endloop
  endfacet
  facet normal 0.13013826052186642 0.05490120368072423 -0.98997469209205069
    outer loop
      vertex 0.0011704558798813535 -0.0052889493553519469 -0.018238895478921636
      vertex -0.0016962836218608656 -0.01019816349823497 -0.018887997181045772
      vertex -0.0044579038117223066 -0.0025314705853213219 -0.0188258559748814
    endloop
  endfacet
  facet normal 0.020029994488984269 0.015317775964883861 -0.99968203197829908
    outer loop
      vertex -0.0016962836218608656 -0.01019816349823497 -0.018887997181045772
      vertex -0.0091166759224549053 -0.010226576564576548 -0.019037110236100593
      vertex -0.0044579038117223066 -0.0025314705853213219 -0.0188258559748814
    endloop
  endfacet
  facet normal 0.016726949466957561 -0.71831225905789808 -0.69551973922288446
    outer loop
      vertex -0.0016962836218608656 -0.01019816349823497 -0.018887997181045772
      vertex -0.0038663701723525489 -0.01285885755052979 -0.01619230053641614
      vertex -0.0091166759224549053 -0.010226576564576548 -0.019037110236100593
    endloop
  endfacet
  facet normal -0.47351478564495553 -0.87867999880564829 0.060870415429150483
    outer loop
      vertex -0.0038663701723525489 -0.01285885755052979 -0.01619230053641614
      vertex -0.010159603776432836 -0.0090628019603108019 -0.010350727780206527
      vertex -0.0091166759224549053 -0.010226576564576548 -0.019037110236100593
    endloop
  endfacet
  facet normal -0.16518751660095726 -0.8987763129956311 0.40609632300377668
    outer loop
      vertex -0.0038663701723525489 -0.01285885755052979 -0.01619230053641614
      vertex -0.0031945754679192813 -0.0084082504356187346 -0.0060689083278522293
      vertex -0.010159603776432836 -0.0090628019603108019 -0.010350727780206527
    endloop
  endfacet
  facet normal -0.094163120366704503 -0.94979600305406131 0.29836363609752314
    outer loop
      vertex -0.0031945754679192813 -0.0084082504356187346 -0.0060689083278522293
      vertex -0.010213354790214102 -0.0072598453333939557 -0.0046282488042938552
      vertex -0.010159603776432836 -0.0090628019603108019 -0.010350727780206527
    endloop
  endfacet
  facet normal -0.028181454898007118 -0.84404856547521867 0.53552574608421644
    outer loop
      vertex -0.0031945754679192813 -0.0084082504356187346 -0.0060689083278522293
      vertex -0.0021020732276769948 -0.0046338984360944722 -6.261504144035963e-05
      vertex -0.010213354790214102 -0.0072598453333939557 -0.0046282488042938552
    endloop
  endfacet
  facet normal -0.11267431658873855 -0.76157874650934954 0.63820240617417656
    outer loop
      vertex -0.0021020732276769948 -0.0046338984360944722 -6.261504144035963e-05
      vertex -0.0083151261787599833 -0.0019350180575434788 0.0020610974788673785
      vertex -0.010213354790214102 -0.0072598453333939557 -0.0046282488042938552
    endloop
  endfacet
  facet normal -0.43908076066437357 -0.88384165511056334 -0.16134439657396013
    outer loop
      vertex -0.0021020732276769948 -0.0046338984360944722 -6.261504144035963e-05
      vertex -0.0040200255521449495 -0.0051372772261784397 0.0079143778746463191
      vertex -0.0083151261787599833 -0.0019350180575434788 0.0020610974788673785
    endloop
  endfacet
  facet normal -0.83894402391260081 -0.31803187678913841 0.44162048196082537
    outer loop
      vertex -0.0040200255521449495 -0.0051372772261784397 0.0079143778746463191
      vertex -0.0063837074664543168 0.0038046801074280408 0.0098636322496086885
      vertex -0.0083151261787599833 -0.0019350180575434788 0.0020610974788673785
    endloop
  endfacet
  facet normal -0.96802604632841394 -0.24863670434907725 -0.033246998063117039
    outer loop
      vertex -0.0040200255521449495 -0.0051372772261784397 0.0079143778746463191
      vertex -0.0045497119007154299 -0.0039180159856876812 0.014218618781651557
      vertex -0.0063837074664543168 0.0038046801074280408 0.0098636322496086885
    endloop
  endfacet
  facet normal -0.77905140313688881 0.15724499692930591 0.60692085333356871
    outer loop
      vertex -0.0045497119007154299 -0.0039180159856876812 0.014218618781651557
      vertex -0.0034734862051484967 -0.0018726819415639338 0.015070157478826134
      vertex -0.0063837074664543168 0.0038046801074280408 0.0098636322496086885
    endloop
  endfacet
  facet normal 0.046733308491962208 0.68805342671251613 0.72415363001683519
    outer loop
      vertex -0.0034734862051484967 -0.0018726819415639338 0.015070157478826134
      vertex -0.00048845167969782449 0.0017957507714458556 0.011391962510548755
      vertex -0.0063837074664543168 0.0038046801074280408 0.0098636322496086885
    endloop
  endfacet
  facet normal -0.38472055310432718 -0.58713542705774435 0.7122233401909972
    outer loop
      vertex -0.00048845167969782449 0.0017957507714458556 0.011391962510548755
      vertex -0.005380325784052468 0.0063102788361620379 0.012471167317135308
      vertex -0.0063837074664543168 0.0038046801074280408 0.0098636322496086885
    endloop
  endfacet
  facet normal 0.18069033341749069 -0.039137221729345036 0.98276104994285585
    outer loop
      vertex -0.00048845167969782449 0.0017957507714458556 0.011391962510548755
      vertex 0.0038346248039960442 0.0087012345379895023 0.010872124364808188
      vertex -0.005380325784052468 0.0063102788361620379 0.012471167317135308
    endloop
  endfacet
  facet normal 0.022832357789371781 0.4934835960399177 0.86945536048568339
    outer loop
      vertex 0.0038346248039960442 0.0087012345379895023 0.010872124364808188
      vertex -0.0033836281263615493 0.0090487558104065877 0.010864434132512753
      vertex -0.005380325784052468 0.0063102788361620379 0.012471167317135308
    endloop
  endfacet
  facet normal 0.047668218179511036 0.99257716471992974 0.11188526735963034
    outer loop
      vertex 0.0038346248039960442 0.0087012345379895023 0.010872124364808188
      vertex -0.0013292753310102509 0.0098295946244818643 0.0030620653841892049
      vertex -0.0033836281263615493 0.0090487558104065877 0.010864434132512753
    endloop
  endfacet
  facet normal -0.58342302795337764 0.65487948692268927 0.48036489053800335
    outer loop
      vertex 0.0038346248039960442 0.0087012345379895023 0.010872124364808188
      vertex 0.0067452246788119574 0.012791035813152624 0.0088315589782102348
      vertex -0.0013292753310102509 0.0098295946244818643 0.0030620653841892049
    endloop
  endfacet
  facet normal -0.18840019997126697 0.95554424477187783 -0.22680511664009706
    outer loop
      vertex 0.0067452246788119574 0.012791035813152624 0.0088315589782102348
      vertex 0.0069952315520170468 0.011924633400923553 0.0049736778310381733
      vertex -0.0013292753310102509 0.0098295946244818643 0.0030620653841892049
    endloop
  endfacet
  facet normal -0.081616832203011191 0.82905106761063374 -0.55318443578504062
    outer loop
      vertex 0.0069952315520170468 0.011924633400923553 0.0049736778310381733
      vertex 0.0054660074920841054 0.0071125358544949805 -0.0020125349667393056
      vertex -0.0013292753310102509 0.0098295946244818643 0.0030620653841892049
    endloop
  endfacet
  facet normal 0.27406153102695763 0.95113095912701195 -0.14226797180423495
    outer loop
      vertex 0.0054660074920841054 0.0071125358544949805 -0.0020125349667393056
      vertex -0.00024055665867598729 0.007787262568719441 -0.0084946421446001289
      vertex -0.0013292753310102509 0.0098295946244818643 0.0030620653841892049
    endloop
  endfacet
  facet normal 0.43004490374303811 0.85510362863714873 -0.28958446963920947
    outer loop
      vertex 0.0054660074920841054 0.0071125358544949805 -0.0020125349667393056
      vertex 0.005432647627671006 0.0039800243614181658 -0.011311956954089361
      vertex -0.00024055665867598729 0.007787262568719441 -0.0084946421446001289
    endloop
  endfacet
  facet normal 0.46505275110893479 0.85706366086675589 -0.22173817873267862
    outer loop
      vertex 0.005432647627671006 0.0039800243614181658 -0.011311956954089361
      vertex 6.1477605189426887e-05 0.0052522209702841518 -0.01765964105944505
      vertex -0.00024055665867598729 0.007787262568719441 -0.0084946421446001289
    endloop
  endfacet
  facet normal 0.38297352709942428 0.91292092233600342 -0.14109098873495504
    outer loop
      vertex 0.005432647627671006 0.0039800243614181658 -0.011311956954089361
      vertex 0.0061379242365034023 0.0024124808705542917 -0.019540271103881422
      vertex 6.1477605189426887e-05 0.0052522209702841518 -0.01765964105944505
    endloop
  endfacet
  facet normal -0.22414720449990055 0.19598758229652066 -0.95464490691588788
    outer loop
      vertex 0.012857182754497761 0.00059994864771880556 -0.02149003986902568
      vertex 0.010224413031565982 -0.0038035668189488475 -0.021775912002688504
      vertex 0.0061379242365034023 0.0024124808705542917 -0.019540271103881422
    endloop
  endfacet
  facet normal -0.13089767090607152 0.25820311247748845 -0.95718177607928956
    outer loop
      vertex 0.010224413031565982 -0.0038035668189488475 -0.021775912002688504
      vertex 0.0048231820666595811 0.00011373773275618129 -0.019980569859690871
      vertex 0.0061379242365034023 0.0024124808705542917 -0.019540271103881422
    endloop
  endfacet
  facet normal -0.42551120912559465 -0.18026250220902393 -0.88681770460778242
    outer loop
      vertex 0.010224413031565982 -0.0038035668189488475 -0.021775912002688504
      vertex 0.0062630297255020792 -0.0092892103523604785 -0.018760107496264514
      vertex 0.0048231820666595811 0.00011373773275618129 -0.019980569859690871
    endloop
  endfacet
  facet normal -0.22333839148086376 -0.15902139032409965 -0.96168194342523194
    outer loop
      vertex 0.0062630297255020792 -0.0092892103523604785 -0.018760107496264514
      vertex 0.0011704558798813535 -0.0052889493553519469 -0.018238895478921636
      vertex 0.0048231820666595811 0.00011373773275618129 -0.019980569859690871
    endloop
  endfacet
  facet normal -0.61985088605112215 -0.78356630470182431 -0.042529110002052145
    outer loop
      vertex 0.0062630297255020792 -0.0092892103523604785 -0.018760107496264514
      vertex 0.005297404741054247 -0.0088563754787062757 -0.012661021959434117
      vertex 0.0011704558798813535 -0.0052889493553519469 -0.018238895478921636
    endloop
  endfacet
  facet normal -0.11161701384101638 -0.87260310733333113 -0.47550547766921614
    outer loop
      vertex 0.005297404741054247 -0.0088563754787062757 -0.012661021959434117
      vertex 0.0021349960550513221 -0.011925507337643835 -0.0062865157689717642
      vertex 0.0011704558798813535 -0.0052889493553519469 -0.018238895478921636
    endloop
  endfacet
  facet normal 0.83696114818349676 -0.44699707645597259 -0.31573667837483865
    outer loop
      vertex 0.0021349960550513221 -0.011925507337643835 -0.0062865157689717642
      vertex -0.0016962836218608656 -0.01019816349823497 -0.018887997181045772
      vertex 0.0011704558798813535 -0.0052889493553519469 -0.018238895478921636
    endloop
  endfacet
  facet normal 0.58362419591135806 -0.76154735513117255 -0.28183048777507425
    outer loop
      vertex 0.0021349960550513221 -0.011925507337643835 -0.0062865157689717642
      vertex -0.0038663701723525489 -0.01285885755052979 -0.01619230053641614
      vertex -0.0016962836218608656 -0.01019816349823497 -0.018887997181045772
    endloop
  endfacet
  facet normal -0.49960063925087905 -0.78030177631885211 0.37620252409275112
    outer loop
      vertex 0.0021349960550513221 -0.011925507337643835 -0.0062865157689717642
      vertex -0.0031945754679192813 -0.0084082504356187346 -0.0060689083278522293
      vertex -0.0038663701723525489 -0.01285885755052979 -0.01619230053641614
    endloop
  endfacet
  facet normal -0.55080541376103798 -0.82823223053203099 -0.10317348728946105
    outer loop
      vertex 0.0021349960550513221 -0.011925507337643835 -0.0062865157689717642
      vertex 0.001239549169896853 -0.011893145851574648 -0.0017658372638480009
      vertex -0.0031945754679192813 -0.0084082504356187346 -0.0060689083278522293
    endloop
  endfacet
  facet normal -0.77767331363771608 -0.45882095930314043 0.42977615634174077
    outer loop
      vertex 0.001239549169896853 -0.011893145851574648 -0.0017658372638480009
      vertex -0.0021020732276769948 -0.0046338984360944722 -6.261504144035963e-05
      vertex -0.0031945754679192813 -0.0084082504356187346 -0.0060689083278522293
    endloop
  endfacet
  facet normal -0.90886757078602098 -0.41704632826518873 -0.0056655850572995834
    outer loop
      vertex 0.001239549169896853 -0.011893145851574648 -0.0017658372638480009
      vertex 0.00036148451957509955 -0.010111832617007408 0.0079691400080037725
      vertex -0.0021020732276769948 -0.0046338984360944722 -6.261504144035963e-05
    endloop
  endfacet
  facet normal -0.73141256414584377 -0.64660176843059702 -0.21666059649144057
    outer loop
      vertex 0.00036148451957509955 -0.010111832617007408 0.0079691400080037725
      vertex -0.0040200255521449495 -0.0051372772261784397 0.0079143778746463191
      vertex -0.0021020732276769948 -0.0046338984360944722 -6.261504144035963e-05
    endloop
  endfacet
  facet normal -0.6958163765363975 -0.61691273870524566 -0.36777471768319203
    outer loop
      vertex 0.00036148451957509955 -0.010111832617007408 0.0079691400080037725
      vertex -0.0031190977436759589 -0.012376564966447318 0.018353182714466516
      vertex -0.0040200255521449495 -0.0051372772261784397 0.0079143778746463191
    endloop
  endfacet
  facet normal -0.98101494704372216 -0.18840052559319226 -0.045988211891875436
    outer loop
      vertex -0.0031190977436759589 -0.012376564966447318 0.018353182714466516
      vertex -0.0045497119007154299 -0.0039180159856876812 0.014218618781651557
      vertex -0.0040200255521449495 -0.0051372772261784397 0.0079143778746463191
    endloop
  endfacet
  facet normal -0.93179302028277455 0.01957606836622661 0.36246178405402379
    outer loop
      vertex -0.0031190977436759589 -0.012376564966447318 0.018353182714466516
      vertex -0.0016135074064319746 -0.0086949812873070107 0.022024818435522127
      vertex -0.0045497119007154299 -0.0039180159856876812 0.014218618781651557
    endloop
  endfacet
  facet normal -0.84626744658621567 0.2492642533988349 0.47084895755004913
    outer loop
      vertex -0.0016135074064319746 -0.0086949812873070107 0.022024818435522127
      vertex -0.0034734862051484967 -0.0018726819415639338 0.015070157478826134
      vertex -0.0045497119007154299 -0.0039180159856876812 0.014218618781651557
    endloop
  endfacet
  facet normal -0.57771402873967714 0.50010356192574368 0.64509141084543631
    outer loop
      vertex -0.0016135074064319746 -0.0086949812873070107 0.022024818435522127
      vertex 0.0010223195450181585 -0.004639156608891571 0.021241087397503154
      vertex -0.0034734862051484967 -0.0018726819415639338 0.015070157478826134
    endloop
  endfacet
  facet normal -0.2793668673876491 0.78364550669367583 0.55484581033366731
    outer loop
      vertex 0.0010223195450181585 -0.004639156608891571 0.021241087397503154
      vertex -0.00048845167969782449 0.0017957507714458556 0.011391962510548755
      vertex -0.0034734862051484967 -0.0018726819415639338 0.015070157478826134
    endloop
  endfacet
  facet normal -0.17137533158756862 0.81253281546935374 0.55715430493598106
    outer loop
      vertex 0.0010223195450181585 -0.004639156608891571 0.021241087397503154
      vertex 0.0044839509625039537 -0.00057955354175231143 0.016385480155742788
      vertex -0.00048845167969782449 0.0017957507714458556 0.011391962510548755
    endloop
  endfacet
  facet normal -0.54812240011004065 0.39850136539721454 0.73536283307912975
    outer loop
      vertex 0.0044839509625039537 -0.00057955354175231143 0.016385480155742788
      vertex 0.0038346248039960442 0.0087012345379895023 0.010872124364808188
      vertex -0.00048845167969782449 0.0017957507714458556 0.011391962510548755
    endloop
  endfacet
  facet normal -0.53004949865898809 0.40537026313429714 0.74479693792186485
    outer loop
      vertex 0.0044839509625039537 -0.00057955354175231143 0.016385480155742788
      vertex 0.0085032147797334291 0.0057976585307464006 0.015774946812439718
      vertex 0.0038346248039960442 0.0087012345379895023 0.010872124364808188
    endloop
  endfacet
  facet normal -0.36179832004966073 0.60945963130653791 0.70545087243332694
    outer loop
      vertex 0.0085032147797334291 0.0057976585307464006 0.015774946812439718
      vertex 0.0067452246788119574 0.012791035813152624 0.0088315589782102348
      vertex 0.0038346248039960442 0.0087012345379895023 0.010872124364808188
    endloop
  endfacet
  facet normal -0.41286941843798247 0.58734453642205087 0.69610720356411226
    outer loop
      vertex 0.0085032147797334291 0.0057976585307464006 0.015774946812439718
      vertex 0.013171742868981911 0.01249078306464103 0.012896542970119116
      vertex 0.0067452246788119574 0.012791035813152624 0.0088315589782102348
    endloop
  endfacet
  facet normal 0.17464330598747746 0.96306197369068935 -0.20496670584453011
    outer loop
      vertex 0.013171742868981911 0.01249078306464103 0.012896542970119116
      vertex 0.0069952315520170468 0.011924633400923553 0.0049736778310381733
      vertex 0.0067452246788119574 0.012791035813152624 0.0088315589782102348
    endloop
  endfacet
  facet normal 0.38148539943401 0.85211390793316177 -0.35828867959447014
    outer loop
      vertex 0.013171742868981911 0.01249078306464103 0.012896542970119116
      vertex 0.012766148107068529 0.0087109942990263693 0.0034752599426808757
      vertex 0.0069952315520170468 0.011924633400923553 0.0049736778310381733
    endloop
  endfacet
  facet normal 0.273025146074097 0.76329691120792198 -0.58552121648294164
    outer loop
      vertex 0.012766148107068529 0.0087109942990263693 0.0034752599426808757
      vertex 0.0054660074920841054 0.0071125358544949805 -0.0020125349667393056
      vertex 0.0069952315520170468 0.011924633400923553 0.0049736778310381733
    endloop
  endfacet
  facet normal 0.19420594065530492 0.84185379197961319 -0.50355361734748194
    outer loop
      vertex 0.012766148107068529 0.0087109942990263693 0.0034752599426808757
      vertex 0.011613376817753119 0.0041600994314170379 -0.004577632528154396
      vertex 0.0054660074920841054 0.0071125358544949805 -0.0020125349667393056
    endloop
  endfacet
  facet normal 0.30593752567818971 0.90190647578887451 -0.30490480368796985
    outer loop
      vertex 0.011613376817753119 0.0041600994314170379 -0.004577632528154396
      vertex 0.005432647627671006 0.0039800243614181658 -0.011311956954089361
      vertex 0.0054660074920841054 0.0071125358544949805 -0.0020125349667393056
    endloop
  endfacet
  facet normal 0.12956452844809621 0.98089075025320516 -0.14514258174542302
    outer loop
      vertex 0.011613376817753119 0.0041600994314170379 -0.004577632528154396
      vertex 0.012524833148699928 0.0027373072606486385 -0.013379400105638817
      vertex 0.005432647627671006 0.0039800243614181658 -0.011311956954089361
    endloop
  endfacet
  facet normal 0.11994279199717577 0.97708100727027825 -0.17585912509625712
    outer loop
      vertex 0.012524833148699928 0.0027373072606486385 -0.013379400105638817
      vertex 0.0061379242365034023 0.0024124808705542917 -0.019540271103881422
      vertex 0.005432647627671006 0.0039800243614181658 -0.011311956954089361
    endloop
  endfacet
  facet normal 0.186205757001878 0.95192856790649616 -0.24322709072561161
    outer loop
      vertex 0.012524833148699928 0.0027373072606486385 -0.013379400105638817
      vertex 0.012857182754497761 0.00059994864771880556 -0.02149003986902568
      vertex 0.0061379242365034023 0.0024124808705542917 -0.019540271103881422
    endloop
  endfacet
  facet normal 0.39977997743602178 -0.18068206917797361 -0.89862670754814533
    outer loop
      vertex 0.016352778071723813 -0.0049612502964321917 -0.018816763046505966
      vertex 0.010224413031565982 -0.0038035668189488475 -0.021775912002688504
      vertex 0.012857182754497761 0.00059994864771880556 -0.02149003986902568
    endloop
  endfacet
  facet normal 0.45861272981754897 0.24252238639319301 -0.85490189855178522
    outer loop
      vertex 0.016352778071723813 -0.0049612502964321917 -0.018816763046505966
      vertex 0.014401880840470664 -0.0088666997432559277 -0.020971238580740147
      vertex 0.010224413031565982 -0.0038035668189488475 -0.021775912002688504
    endloop
  endfacet
  facet normal -0.2307165625367926 -0.33551474259455555 -0.91334534830638692
    outer loop
      vertex 0.014401880840470664 -0.0088666997432559277 -0.020971238580740147
      vertex 0.0062630297255020792 -0.0092892103523604785 -0.018760107496264514
      vertex 0.010224413031565982 -0.0038035668189488475 -0.021775912002688504
    endloop
  endfacet
  facet normal -0.26196076638195032 -0.0043404011308995089 -0.96506876324674618
    outer loop
      vertex 0.014401880840470664 -0.0088666997432559277 -0.020971238580740147
      vertex 0.010514917714708057 -0.014870459855643486 -0.019889149297287079
      vertex 0.0062630297255020792 -0.0092892103523604785 -0.018760107496264514
    endloop
  endfacet
  facet normal -0.80079259086685328 -0.59292170451271009 -0.084705836460630304
    outer loop
      vertex 0.010514917714708057 -0.014870459855643486 -0.019889149297287079
      vertex 0.005297404741054247 -0.0088563754787062757 -0.012661021959434117
      vertex 0.0062630297255020792 -0.0092892103523604785 -0.018760107496264514
    endloop
  endfacet
  facet normal -0.85604778742757304 -0.14711549612719135 -0.49551913831819572
    outer loop
      vertex 0.010514917714708057 -0.014870459855643486 -0.019889149297287079
      vertex 0.0021349960550513221 -0.011925507337643835 -0.0062865157689717642
      vertex 0.005297404741054247 -0.0088563754787062757 -0.012661021959434117
    endloop
  endfacet
  facet normal -0.82724803216721632 -0.35944853994037473 -0.4318071796649528
    outer loop
      vertex 0.010514917714708057 -0.014870459855643486 -0.019889149297287079
      vertex 0.0071420970012475073 -0.017524853404856072 -0.01121797067848798
      vertex 0.0021349960550513221 -0.011925507337643835 -0.0062865157689717642
    endloop
  endfacet
  facet normal -0.80015787076565659 -0.57959047280783027 -0.15434463282591551
    outer loop
      vertex 0.0071420970012475073 -0.017524853404856072 -0.01121797067848798
      vertex 0.001239549169896853 -0.011893145851574648 -0.0017658372638480009
      vertex 0.0021349960550513221 -0.011925507337643835 -0.0062865157689717642
    endloop
  endfacet
  facet normal -0.87562420623801218 -0.14390879114162355 -0.46105586351569988
    outer loop
      vertex 0.0071420970012475073 -0.017524853404856072 -0.01121797067848798
      vertex 0.0054395931976169588 -0.019079716067859503 -0.0074993064480375574
      vertex 0.001239549169896853 -0.011893145851574648 -0.0017658372638480009
    endloop
  endfacet
  facet normal -0.42416492459212324 -0.70316354939649861 0.57065325684330981
    outer loop
      vertex 0.0054395931976169588 -0.019079716067859503 -0.0074993064480375574
      vertex 0.0070345123410406763 -0.014013955112430716 -7.1736095664739563e-05
      vertex 0.001239549169896853 -0.011893145851574648 -0.0017658372638480009
    endloop
  endfacet
  facet normal -0.3749017183529868 -0.91732362314097693 0.13403757683384368
    outer loop
      vertex 0.0070345123410406763 -0.014013955112430716 -7.1736095664739563e-05
      vertex 0.00036148451957509955 -0.010111832617007408 0.0079691400080037725
      vertex 0.001239549169896853 -0.011893145851574648 -0.0017658372638480009
    endloop
  endfacet
  facet normal -0.1200435256973469 -0.9286368614525069 0.35103152492303014
    outer loop
      vertex 0.0070345123410406763 -0.014013955112430716 -7.1736095664739563e-05
      vertex 0.0073307279573177177 -0.0098434358451091053 0.011062468135235193
      vertex 0.00036148451957509955 -0.010111832617007408 0.0079691400080037725
    endloop
  endfacet
  facet normal 0.11518391998770516 -0.9778679374756184 -0.17466242135458299
    outer loop
      vertex 0.0073307279573177177 -0.0098434358451091053 0.011062468135235193
      vertex -0.0031190977436759589 -0.012376564966447318 0.018353182714466516
      vertex 0.00036148451957509955 -0.010111832617007408 0.0079691400080037725
    endloop
  endfacet
  facet normal 0.35550504243138598 -0.91480394836146084 0.19170263657065378
    outer loop
      vertex 0.0073307279573177177 -0.0098434358451091053 0.011062468135235193
      vertex 0.0067370202998338477 -0.0087838802004101095 0.017219669592451074
      vertex -0.0031190977436759589 -0.012376564966447318 0.018353182714466516
    endloop
  endfacet
  facet normal 0.33473719738722862 -0.7305141448262662 0.59523112560928138
    outer loop
      vertex 0.0067370202998338477 -0.0087838802004101095 0.017219669592451074
      vertex -0.0016135074064319746 -0.0086949812873070107 0.022024818435522127
      vertex -0.0031190977436759589 -0.012376564966447318 0.018353182714466516
    endloop
  endfacet
  facet normal 0.48892675145164449 0.2138130040775891 0.84571545510429136
    outer loop
      vertex 0.0067370202998338477 -0.0087838802004101095 0.017219669592451074
      vertex 0.0082263039833731164 -0.0067948226009620048 0.015855810144166649
      vertex -0.0016135074064319746 -0.0086949812873070107 0.022024818435522127
    endloop
  endfacet
  facet normal 0.54785814693405832 -0.19903190036212468 0.81255015443738676
    outer loop
      vertex 0.0082263039833731164 -0.0067948226009620048 0.015855810144166649
      vertex 0.0010223195450181585 -0.004639156608891571 0.021241087397503154
      vertex -0.0016135074064319746 -0.0086949812873070107 0.022024818435522127
    endloop
  endfacet
  facet normal 0.6263026273290293 0.33771882257316316 0.70263149365834077
    outer loop
      vertex 0.0082263039833731164 -0.0067948226009620048 0.015855810144166649
      vertex 0.0097525206471779091 -0.0050259580520933302 0.013645188540710734
      vertex 0.0010223195450181585 -0.004639156608891571 0.021241087397503154
    endloop
  endfacet
  facet normal 0.6316876890307902 0.31080378978457751 0.71019128957097455
    outer loop
      vertex 0.0097525206471779091 -0.0050259580520933302 0.013645188540710734
      vertex 0.0044839509625039537 -0.00057955354175231143 0.016385480155742788
      vertex 0.0010223195450181585 -0.004639156608891571 0.021241087397503154
    endloop
  endfacet
  facet normal 0.23997934775078517 -0.2871579569932261 0.92733500979343175
    outer loop
      vertex 0.0097525206471779091 -0.0050259580520933302 0.013645188540710734
      vertex 0.011405643610321755 -0.0021689723524986586 0.014102079310209173
      vertex 0.0044839509625039537 -0.00057955354175231143 0.016385480155742788
    endloop
  endfacet
  facet normal 0.2925394430488728 -0.093262043734785707 0.95169473333578247
    outer loop
      vertex 0.011405643610321755 -0.0021689723524986586 0.014102079310209173
      vertex 0.0085032147797334291 0.0057976585307464006 0.015774946812439718
      vertex 0.0044839509625039537 -0.00057955354175231143 0.016385480155742788
    endloop
  endfacet
  facet normal 0.21983628031804708 -0.12311801862022229 0.9677365154560178
    outer loop
      vertex 0.011405643610321755 -0.0021689723524986586 0.014102079310209173
      vertex 0.014781492181606386 0.0033352685935334348 0.014035467425140372
      vertex 0.0085032147797334291 0.0057976585307464006 0.015774946812439718
    endloop
  endfacet
  facet normal 0.3253676735149531 0.17285392133285324 0.92965445134809244
    outer loop
      vertex 0.014781492181606386 0.0033352685935334348 0.014035467425140372
      vertex 0.013171742868981911 0.01249078306464103 0.012896542970119116
      vertex 0.0085032147797334291 0.0057976585307464006 0.015774946812439718
    endloop
  endfacet
  facet normal 0.43177804883134574 0.185716489794683 0.88265344386442945
    outer loop
      vertex 0.014781492181606386 0.0033352685935334348 0.014035467425140372
      vertex 0.017726678088248175 0.0073984014505848843 0.01173982420289784
      vertex 0.013171742868981911 0.01249078306464103 0.012896542970119116
    endloop
  endfacet
  facet normal 0.70225234271271764 0.67768602936090605 -0.21813595018599996
    outer loop
      vertex 0.017726678088248175 0.0073984014505848843 0.01173982420289784
      vertex 0.017732827763749258 0.006818122503786773 0.009956861279921821
      vertex 0.013171742868981911 0.01249078306464103 0.012896542970119116
    endloop
  endfacet
  facet normal 0.65917056782329431 0.68768516954691705 -0.30427499092226379
    outer loop
      vertex 0.017732827763749258 0.006818122503786773 0.009956861279921821
      vertex 0.012766148107068529 0.0087109942990263693 0.0034752599426808757
      vertex 0.013171742868981911 0.01249078306464103 0.012896542970119116
    endloop
  endfacet
  facet normal 0.70308775934739043 0.61347898755127894 -0.35959857409189444
    outer loop
      vertex 0.017732827763749258 0.006818122503786773 0.009956861279921821
      vertex 0.016726619395028279 0.0015396215328977924 -0.0010156578096609055
      vertex 0.012766148107068529 0.0087109942990263693 0.0034752599426808757
    endloop
  endfacet
  facet normal 0.63455045564444557 0.63042899246477213 -0.44710737491264746
    outer loop
      vertex 0.016726619395028279 0.0015396215328977924 -0.0010156578096609055
      vertex 0.011613376817753119 0.0041600994314170379 -0.004577632528154396
      vertex 0.012766148107068529 0.0087109942990263693 0.0034752599426808757
    endloop
  endfacet
  facet normal 0.58810510932974691 0.75565153048106737 -0.28831084763127957
    outer loop
      vertex 0.016726619395028279 0.0015396215328977924 -0.0010156578096609055
      vertex 0.016352778071723813 -0.0049612502964321917 -0.018816763046505966
      vertex 0.011613376817753119 0.0041600994314170379 -0.004577632528154396
    endloop
  endfacet
  facet normal 0.90171166606751374 0.43169368769104549 0.023593034680907021
    outer loop
      vertex 0.016352778071723813 -0.0049612502964321917 -0.018816763046505966
      vertex 0.012524833148699928 0.0027373072606486385 -0.013379400105638817
      vertex 0.011613376817753119 0.0041600994314170379 -0.004577632528154396
    endloop
  endfacet
  facet normal 0.86280523276563703 0.49644006140158287 -0.095469344544872214
    outer loop
      vertex 0.016352778071723813 -0.0049612502964321917 -0.018816763046505966
      vertex 0.012857182754497761 0.00059994864771880556 -0.02149003986902568
      vertex 0.012524833148699928 0.0027373072606486385 -0.013379400105638817
    endloop
  endfacet
  facet normal 0.72052966334719504 0.022406090218027259 -0.69306202562102603
    outer loop
      vertex 0.019573998155176402 -0.010805779800528196 -0.015656827159116642
      vertex 0.014401880840470664 -0.0088666997432559277 -0.020971238580740147
      vertex 0.016352778071723813 -0.0049612502964321917 -0.018816763046505966
    endloop
  endfacet
  facet normal 0.67283541700770055 -0.17520232247869996 -0.7187465810827508
    outer loop
      vertex 0.019573998155176402 -0.010805779800528196 -0.015656827159116642
      vertex 0.015126788153863981 -0.018819057098042376 -0.017866640248134551
      vertex 0.014401880840470664 -0.0088666997432559277 -0.020971238580740147
    endloop
  endfacet
  facet normal 0.17259035026752198 -0.28184633899623196 -0.94380888541534469
    outer loop
      vertex 0.015126788153863981 -0.018819057098042376 -0.017866640248134551
      vertex 0.010514917714708057 -0.014870459855643486 -0.019889149297287079
      vertex 0.014401880840470664 -0.0088666997432559277 -0.020971238580740147
    endloop
  endfacet
  facet normal 0.053798736324768136 -0.40473484493533368 -0.91285015268938274
    outer loop
      vertex 0.015126788153863981 -0.018819057098042376 -0.017866640248134551
      vertex 0.012858809900570848 -0.022093678068133206 -0.016548418584954372
      vertex 0.010514917714708057 -0.014870459855643486 -0.019889149297287079
    endloop
  endfacet
  facet normal -0.77409503728787521 -0.45484346761175248 -0.44033429711663352
    outer loop
      vertex 0.012858809900570848 -0.022093678068133206 -0.016548418584954372
      vertex 0.0071420970012475073 -0.017524853404856072 -0.01121797067848798
      vertex 0.010514917714708057 -0.014870459855643486 -0.019889149297287079
    endloop
  endfacet
  facet normal -0.74813499308037168 -0.59614833691615221 -0.29137809203977233
    outer loop
      vertex 0.012858809900570848 -0.022093678068133206 -0.016548418584954372
      vertex 0.011731515530528246 -0.022623991564019678 -0.012569005217836833
      vertex 0.0071420970012475073 -0.017524853404856072 -0.01121797067848798
    endloop
  endfacet
  facet normal -0.71780467133157788 -0.68251079163013517 0.13760622486999502
    outer loop
      vertex 0.011731515530528246 -0.022623991564019678 -0.012569005217836833
      vertex 0.011586570677882796 -0.021859375316732137 -0.0095326836538243906
      vertex 0.0071420970012475073 -0.017524853404856072 -0.01121797067848798
    endloop
  endfacet
  facet normal -0.48878398282057606 -0.70237315052351101 -0.51745741424945502
    outer loop
      vertex 0.011586570677882796 -0.021859375316732137 -0.0095326836538243906
      vertex 0.0054395931976169588 -0.019079716067859503 -0.0074993064480375574
      vertex 0.0071420970012475073 -0.017524853404856072 -0.01121797067848798
    endloop
  endfacet
  facet normal -0.47930046669417481 -0.80620594146165347 -0.34684728999759423
    outer loop
      vertex 0.011586570677882796 -0.021859375316732137 -0.0095326836538243906
      vertex 0.010425878764353764 -0.022633167941433347 -0.0061301591960316593
      vertex 0.0054395931976169588 -0.019079716067859503 -0.0074993064480375574
    endloop
  endfacet
  facet normal -0.59661273478214594 -0.6628806366383887 0.45237429885621594
    outer loop
      vertex 0.010425878764353764 -0.022633167941433347 -0.0061301591960316593
      vertex 0.011049716237203246 -0.020117936898880303 -0.0016217524614467022
      vertex 0.0054395931976169588 -0.019079716067859503 -0.0074993064480375574
    endloop
  endfacet
  facet normal -0.6473939392589747 -0.55775394781261023 0.51941469088792136
    outer loop
      vertex 0.011049716237203246 -0.020117936898880303 -0.0016217524614467022
      vertex 0.0070345123410406763 -0.014013955112430716 -7.1736095664739563e-05
      vertex 0.0054395931976169588 -0.019079716067859503 -0.0074993064480375574
    endloop
  endfacet
  facet normal -0.78316996322648358 -0.57516845765636526 0.23627537750901254
    outer loop
      vertex 0.011049716237203246 -0.020117936898880303 -0.0016217524614467022
      vertex 0.0073307279573177177 -0.0098434358451091053 0.011062468135235193
      vertex 0.0070345123410406763 -0.014013955112430716 -7.1736095664739563e-05
    endloop
  endfacet
  facet normal -0.44817024004527306 -0.75437065823095562 0.47965440260458053
    outer loop
      vertex 0.011049716237203246 -0.020117936898880303 -0.0016217524614467022
      vertex 0.012694610183682205 -0.013444295741439408 0.010411060239193479
      vertex 0.0073307279573177177 -0.0098434358451091053 0.011062468135235193
    endloop
  endfacet
  facet normal -0.55978084754709401 -0.82801042704530325 -0.032313084404180605
    outer loop
      vertex 0.012694610183682205 -0.013444295741439408 0.010411060239193479
      vertex 0.012315436143631233 -0.013280705527429586 0.012787805262486509
      vertex 0.0073307279573177177 -0.0098434358451091053 0.011062468135235193
    endloop
  endfacet
  facet normal -0.5849325683757125 -0.80688043407454746 0.082449108916121602
    outer loop
      vertex 0.012315436143631233 -0.013280705527429586 0.012787805262486509
      vertex 0.0067370202998338477 -0.0087838802004101095 0.017219669592451074
      vertex 0.0073307279573177177 -0.0098434358451091053 0.011062468135235193
    endloop
  endfacet
  facet normal 0.64264564554812342 0.043329726581631423 0.76493732361050115
    outer loop
      vertex 0.012315436143631233 -0.013280705527429586 0.012787805262486509
      vertex 0.0082263039833731164 -0.0067948226009620048 0.015855810144166649
      vertex 0.0067370202998338477 -0.0087838802004101095 0.017219669592451074
    endloop
  endfacet
  facet normal 0.2308273954310445 -0.29331407686571342 0.92773140823782319
    outer loop
      vertex 0.012315436143631233 -0.013280705527429586 0.012787805262486509
      vertex 0.013765765513065019 -0.01076408786073905 0.01322261175204143
      vertex 0.0082263039833731164 -0.0067948226009620048 0.015855810144166649
    endloop
  endfacet
  facet normal 0.60098983609717671 0.36808521169798647 0.70945365869599764
    outer loop
      vertex 0.013765765513065019 -0.01076408786073905 0.01322261175204143
      vertex 0.0097525206471779091 -0.0050259580520933302 0.013645188540710734
      vertex 0.0082263039833731164 -0.0067948226009620048 0.015855810144166649
    endloop
  endfacet
  facet normal 0.63009669528817824 0.3912949611321519 0.67072081224567981
    outer loop
      vertex 0.013765765513065019 -0.01076408786073905 0.01322261175204143
      vertex 0.014886040046360389 -0.0095178658453446245 0.011443150529830935
      vertex 0.0097525206471779091 -0.0050259580520933302 0.013645188540710734
    endloop
  endfacet
  facet normal 0.18209965428940783 -0.25714184460831629 0.94906152996479143
    outer loop
      vertex 0.014886040046360389 -0.0095178658453446245 0.011443150529830935
      vertex 0.011405643610321755 -0.0021689723524986586 0.014102079310209173
      vertex 0.0097525206471779091 -0.0050259580520933302 0.013645188540710734
    endloop
  endfacet
  facet normal 0.53168647362745936 -0.054007255251627036 0.84521755196031201
    outer loop
      vertex 0.014886040046360389 -0.0095178658453446245 0.011443150529830935
      vertex 0.017928772645146987 -0.005073179172307778 0.0098131152391763843
      vertex 0.011405643610321755 -0.0021689723524986586 0.014102079310209173
    endloop
  endfacet
  facet normal 0.44559455376964408 -0.26293480343314113 0.85575158941973761
    outer loop
      vertex 0.017928772645146987 -0.005073179172307778 0.0098131152391763843
      vertex 0.014781492181606386 0.0033352685935334348 0.014035467425140372
      vertex 0.011405643610321755 -0.0021689723524986586 0.014102079310209173
    endloop
  endfacet
  facet normal 0.6094493166406979 -0.1616426937751613 0.77617212652561518
    outer loop
      vertex 0.017928772645146987 -0.005073179172307778 0.0098131152391763843
      vertex 0.019992175066994522 -0.0020228731085018305 0.0088281797064106247
      vertex 0.014781492181606386 0.0033352685935334348 0.014035467425140372
    endloop
  endfacet
  facet normal 0.66965794730617345 -0.067540881509196127 0.73959209226075628
    outer loop
      vertex 0.019992175066994522 -0.0020228731085018305 0.0088281797064106247
      vertex 0.017726678088248175 0.0073984014505848843 0.01173982420289784
      vertex 0.014781492181606386 0.0033352685935334348 0.014035467425140372
    endloop
  endfacet
  facet normal 0.96324699532240632 0.25638982881169003 -0.080121668007277658
    outer loop
      vertex 0.019992175066994522 -0.0020228731085018305 0.0088281797064106247
      vertex 0.017732827763749258 0.006818122503786773 0.009956861279921821
      vertex 0.017726678088248175 0.0073984014505848843 0.01173982420289784
    endloop
  endfacet
  facet normal 0.96858171858674769 0.23854731560276152 0.070318081872721219
    outer loop
      vertex 0.019992175066994522 -0.0020228731085018305 0.0088281797064106247
      vertex 0.020377406591769245 -0.0025533486036631355 0.0053214755929132046
      vertex 0.017732827763749258 0.006818122503786773 0.009956861279921821
    endloop
  endfacet
  facet normal 0.88601653852232909 0.38083706575043974 -0.26445760116794831
    outer loop
      vertex 0.020377406591769245 -0.0025533486036631355 0.0053214755929132046
      vertex 0.016726619395028279 0.0015396215328977924 -0.0010156578096609055
      vertex 0.017732827763749258 0.006818122503786773 0.009956861279921821
    endloop
  endfacet
  facet normal 0.8559752828431223 0.48462859641893885 -0.18011507070383068
    outer loop
      vertex 0.020377406591769245 -0.0025533486036631355 0.0053214755929132046
      vertex 0.020246855361166161 -0.0063573173453891317 -0.0055341438231892989
      vertex 0.016726619395028279 0.0015396215328977924 -0.0010156578096609055
    endloop
  endfacet
  facet normal 0.84852587322343909 0.49105539657853253 -0.19715080512516384
    outer loop
      vertex 0.020246855361166161 -0.0063573173453891317 -0.0055341438231892989
      vertex 0.016352778071723813 -0.0049612502964321917 -0.018816763046505966
      vertex 0.016726619395028279 0.0015396215328977924 -0.0010156578096609055
    endloop
  endfacet
  facet normal 0.83578170855646705 0.51479986199943839 -0.19091892972618477
    outer loop
      vertex 0.020246855361166161 -0.0063573173453891317 -0.0055341438231892989
      vertex 0.020142009818696363 -0.0093376968843248871 -0.014029513896215456
      vertex 0.016352778071723813 -0.0049612502964321917 -0.018816763046505966
    endloop
  endfacet
  facet normal 0.85036257061521803 0.20715620675190707 -0.48370425313494975
    outer loop
      vertex 0.020142009818696363 -0.0093376968843248871 -0.014029513896215456
      vertex 0.019573998155176402 -0.010805779800528196 -0.015656827159116642
      vertex 0.016352778071723813 -0.0049612502964321917 -0.018816763046505966
    endloop
  endfacet
  facet normal 0.57655351365703378 -0.096224146385744599 -0.81137350187325186
    outer loop
      vertex 0.023640587945227359 -0.015188260463267853 -0.012247414494673982
      vertex 0.015126788153863981 -0.018819057098042376 -0.017866640248134551
      vertex 0.019573998155176402 -0.010805779800528196 -0.015656827159116642
    endloop
  endfacet
  facet normal 0.59908712277961851 -0.61924858327864019 -0.50756852879885617
    outer loop
      vertex 0.023640587945227359 -0.015188260463267853 -0.012247414494673982
      vertex 0.012858809900570848 -0.022093678068133206 -0.016548418584954372
      vertex 0.015126788153863981 -0.018819057098042376 -0.017866640248134551
    endloop
  endfacet
  facet normal 0.56396737172147826 -0.82006758258523338 -0.097107999806296863
    outer loop
      vertex 0.023640587945227359 -0.015188260463267853 -0.012247414494673982
      vertex 0.019218896016857015 -0.019336040477886261 -0.0028993694717190399
      vertex 0.012858809900570848 -0.022093678068133206 -0.016548418584954372
    endloop
  endfacet
  facet normal 0.40847084650119891 -0.91275213630598995 -0.0059249664510264812
    outer loop
      vertex 0.019218896016857015 -0.019336040477886261 -0.0028993694717190399
      vertex 0.011731515530528246 -0.022623991564019678 -0.012569005217836833
      vertex 0.012858809900570848 -0.022093678068133206 -0.016548418584954372
    endloop
  endfacet
  facet normal 0.10336596369877982 -0.96335097994364627 0.2475285175292718
    outer loop
      vertex 0.019218896016857015 -0.019336040477886261 -0.0028993694717190399
      vertex 0.011586570677882796 -0.021859375316732137 -0.0095326836538243906
      vertex 0.011731515530528246 -0.022623991564019678 -0.012569005217836833
    endloop
  endfacet
  facet normal 0.37607965247351283 -0.92298621497053612 -0.08161214351899497
    outer loop
      vertex 0.019218896016857015 -0.019336040477886261 -0.0028993694717190399
      vertex 0.010425878764353764 -0.022633167941433347 -0.0061301591960316593
      vertex 0.011586570677882796 -0.021859375316732137 -0.0095326836538243906
    endloop
  endfacet
  facet normal 0.15609725963957014 -0.87161507365766666 0.46467279768215097
    outer loop
      vertex 0.019218896016857015 -0.019336040477886261 -0.0028993694717190399
      vertex 0.011049716237203246 -0.020117936898880303 -0.0016217524614467022
      vertex 0.010425878764353764 -0.022633167941433347 -0.0061301591960316593
    endloop
  endfacet
  facet normal 0.15503630825449366 -0.87714989830871382 0.45450170408902818
    outer loop
      vertex 0.019218896016857015 -0.019336040477886261 -0.0028993694717190399
      vertex 0.020925114375950911 -0.012137962424103158 0.010410300399703799
      vertex 0.011049716237203246 -0.020117936898880303 -0.0016217524614467022
    endloop
  endfacet
  facet normal 0.13875797823037073 -0.87396854186395256 0.46575230682157276
    outer loop
      vertex 0.020925114375950911 -0.012137962424103158 0.010410300399703799
      vertex 0.012694610183682205 -0.013444295741439408 0.010411060239193479
      vertex 0.011049716237203246 -0.020117936898880303 -0.0016217524614467022
    endloop
  endfacet
  facet normal 0.15609130107090821 -0.98339354770357301 0.092588530958056942
    outer loop
      vertex 0.020925114375950911 -0.012137962424103158 0.010410300399703799
      vertex 0.012315436143631233 -0.013280705527429586 0.012787805262486509
      vertex 0.012694610183682205 -0.013444295741439408 0.010411060239193479
    endloop
  endfacet
  facet normal 0.29152307133276012 -0.32353439887634472 0.90018875333145354
    outer loop
      vertex 0.020925114375950911 -0.012137962424103158 0.010410300399703799
      vertex 0.013765765513065019 -0.01076408786073905 0.01322261175204143
      vertex 0.012315436143631233 -0.013280705527429586 0.012787805262486509
    endloop
  endfacet
  facet normal 0.38663599654976344 0.62316594117074675 0.67983587426433223
    outer loop
      vertex 0.020925114375950911 -0.012137962424103158 0.010410300399703799
      vertex 0.014886040046360389 -0.0095178658453446245 0.011443150529830935
      vertex 0.013765765513065019 -0.01076408786073905 0.01322261175204143
    endloop
  endfacet
  facet normal 0.4207388280981274 0.87417149385534787 0.24249337694321429
    outer loop
      vertex 0.020925114375950911 -0.012137962424103158 0.010410300399703799
      vertex 0.02283956224527553 -0.011209106904806936 0.0037401736100045983
      vertex 0.014886040046360389 -0.0095178658453446245 0.011443150529830935
    endloop
  endfacet
  facet normal 0.6624855263429178 -0.1875594478651153 0.72521333475238869
    outer loop
      vertex 0.02283956224527553 -0.011209106904806936 0.0037401736100045983
      vertex 0.017928772645146987 -0.005073179172307778 0.0098131152391763843
      vertex 0.014886040046360389 -0.0095178658453446245 0.011443150529830935
    endloop
  endfacet
  facet normal 0.65041522631768611 -0.20369598681922105 0.73175677538910222
    outer loop
      vertex 0.02283956224527553 -0.011209106904806936 0.0037401736100045983
      vertex 0.019992175066994522 -0.0020228731085018305 0.0088281797064106247
      vertex 0.017928772645146987 -0.005073179172307778 0.0098131152391763843
    endloop
  endfacet
  facet normal 0.96285176848549037 0.26179726190668923 0.066171486174363872
    outer loop
      vertex 0.02283956224527553 -0.011209106904806936 0.0037401736100045983
      vertex 0.020377406591769245 -0.0025533486036631355 0.0053214755929132046
      vertex 0.019992175066994522 -0.0020228731085018305 0.0088281797064106247
    endloop
  endfacet
  facet normal 0.87273271015964493 0.16426359085242581 0.45973371568514299
    outer loop
      vertex 0.02283956224527553 -0.011209106904806936 0.0037401736100045983
      vertex 0.024609314190932825 -0.0096136646659916586 -0.00018947831969312492
      vertex 0.020377406591769245 -0.0025533486036631355 0.0053214755929132046
    endloop
  endfacet
  facet normal 0.7462583643509707 0.62535232452965572 -0.22810726389479605
    outer loop
      vertex 0.024609314190932825 -0.0096136646659916586 -0.00018947831969312492
      vertex 0.020246855361166161 -0.0063573173453891317 -0.0055341438231892989
      vertex 0.020377406591769245 -0.0025533486036631355 0.0053214755929132046
    endloop
  endfacet
  facet normal 0.74644402207783556 0.62499608714667254 -0.22847584764174203
    outer loop
      vertex 0.024609314190932825 -0.0096136646659916586 -0.00018947831969312492
      vertex 0.020142009818696363 -0.0093376968843248871 -0.014029513896215456
      vertex 0.020246855361166161 -0.0063573173453891317 -0.0055341438231892989
    endloop
  endfacet
  facet normal 0.86048846928222289 0.43258750149422037 -0.26912385212634887
    outer loop
      vertex 0.024609314190932825 -0.0096136646659916586 -0.00018947831969312492
      vertex 0.023640587945227359 -0.015188260463267853 -0.012247414494673982
      vertex 0.020142009818696363 -0.0093376968843248871 -0.014029513896215456
    endloop
  endfacet
  facet normal 0.78216905305318818 0.30166973056724744 -0.54516689747760994
    outer loop
      vertex 0.023640587945227359 -0.015188260463267853 -0.012247414494673982
      vertex 0.019573998155176402 -0.010805779800528196 -0.015656827159116642
      vertex 0.020142009818696363 -0.0093376968843248871 -0.014029513896215456
    endloop
  endfacet
  facet normal 0.4292997874212896 -0.88320354834267034 -0.18882050925403179
    outer loop
      vertex 0.021577482420958721 -0.018317609796303889 -0.0023006048002981688
      vertex 0.019218896016857015 -0.019336040477886261 -0.0028993694717190399
      vertex 0.023640587945227359 -0.015188260463267853 -0.012247414494673982
    endloop
  endfacet
  facet normal 0.2625328410497631 -0.86243424343895092 0.43276284858363728
    outer loop
      vertex 0.021577482420958721 -0.018317609796303889 -0.0023006048002981688
      vertex 0.020925114375950911 -0.012137962424103158 0.010410300399703799
      vertex 0.019218896016857015 -0.019336040477886261 -0.0028993694717190399
    endloop
  endfacet
  facet normal 0.037230623704258017 -0.89797117703889207 0.43847650548915224
    outer loop
      vertex 0.021577482420958721 -0.018317609796303889 -0.0023006048002981688
      vertex 0.022325857122630161 -0.014578914950268081 0.00529245369404952
      vertex 0.020925114375950911 -0.012137962424103158 0.010410300399703799
    endloop
  endfacet
  facet normal 0.96174842744379307 -0.020790162294896063 0.27314415875347342
    outer loop
      vertex 0.022325857122630161 -0.014578914950268081 0.00529245369404952
      vertex 0.02283956224527553 -0.011209106904806936 0.0037401736100045983
      vertex 0.020925114375950911 -0.012137962424103158 0.010410300399703799
    endloop
  endfacet
  facet normal 0.90060811994118695 0.060940826640123395 0.43033850623017594
    outer loop
      vertex 0.022325857122630161 -0.014578914950268081 0.00529245369404952
      vertex 0.024609314190932825 -0.0096136646659916586 -0.00018947831969312492
      vertex 0.02283956224527553 -0.011209106904806936 0.0037401736100045983
    endloop
  endfacet
  facet normal 0.93675689361933012 -0.34023023693914234 0.082036017266796393
    outer loop
      vertex 0.022325857122630161 -0.014578914950268081 0.00529245369404952
      vertex 0.023640587945227359 -0.015188260463267853 -0.012247414494673982
      vertex 0.024609314190932825 -0.0096136646659916586 -0.00018947831969312492
    endloop
  endfacet
  facet normal 0.93188733185589834 -0.3533288977275531 0.082126066246515361
    outer loop
      vertex 0.022325857122630161 -0.014578914950268081 0.00529245369404952
      vertex 0.021577482420958721 -0.018317609796303889 -0.0023006048002981688
      vertex 0.023640587945227359 -0.015188260463267853 -0.012247414494673982
    endloop
  endfacet
endsolid OBJECT
